<svg xmlns="http://www.w3.org/2000/svg" xmlns:xlink="http://www.w3.org/1999/xlink" viewBox="0 0 236.08 231"><defs><style>.cls-1{fill:url(#Áåçûìÿííûé_ãðàäèåíò_3);}.cls-2{fill:url(#Áåçûìÿííûé_ãðàäèåíò_3-2);}.cls-3{fill:url(#Áåçûìÿííûé_ãðàäèåíò_3-3);}.cls-4{fill:#eb924d;}.cls-5{fill:url(#Áåçûìÿííûé_ãðàäèåíò_3-4);}.cls-6{fill:url(#Áåçûìÿííûé_ãðàäèåíò_3-5);}.cls-7{fill:url(#Áåçûìÿííûé_ãðàäèåíò_3-6);}</style><linearGradient id="Áåçûìÿííûé_ãðàäèåíò_3" x1="189.82" y1="-96.16" x2="130.35" y2="79.38" gradientUnits="userSpaceOnUse"><stop offset="0" stop-color="#cf5c2b"/><stop offset="1" stop-color="#59173e"/></linearGradient><linearGradient id="Áåçûìÿííûé_ãðàäèåíò_3-2" x1="182.47" y1="-26.13" x2="-1.09" y2="386.02" xlink:href="#Áåçûìÿííûé_ãðàäèåíò_3"/><linearGradient id="Áåçûìÿííûé_ãðàäèåíò_3-3" x1="168.46" y1="1.43" x2="-11.82" y2="406.2" xlink:href="#Áåçûìÿííûé_ãðàäèåíò_3"/><linearGradient id="Áåçûìÿííûé_ãðàäèåíò_3-4" x1="218.93" y1="-132.19" x2="66.56" y2="275.13" xlink:href="#Áåçûìÿííûé_ãðàäèåíò_3"/><linearGradient id="Áåçûìÿííûé_ãðàäèåíò_3-5" x1="187.7" y1="-49.19" x2="35.33" y2="358.14" xlink:href="#Áåçûìÿííûé_ãðàäèåíò_3"/><linearGradient id="Áåçûìÿííûé_ãðàäèåíò_3-6" x1="260.21" y1="-233.26" x2="107.45" y2="158.42" xlink:href="#Áåçûìÿííûé_ãðàäèåíò_3"/></defs><g id="Layer_2" data-name="Layer 2"><g id="Layer_1-2" data-name="Layer 1"><path class="cls-1" d="M236.07,212.76c0-1.55-.11-3.1-.17-4.64l-.27-7.73-.06-1.86c-.07-2.36.15-4.82-.77-7-.24-.57-.62-1.15-1.12-1.14a2.71,2.71,0,0,0,1.12-2,25.63,25.63,0,0,0,.34-3.93c0-1.11-.06-2.23-.09-3.34,0-1.27-.07-2.54-.1-3.81-.07-2.55-.13-5.09-.19-7.64s-.12-5.08-.17-7.62l0-1.39c0-1.31-.05-2.6,0-3.9a5.1,5.1,0,0,0-.71-2.71,1.8,1.8,0,0,0-1.77-1,2.8,2.8,0,0,0,1.45-1c1-1.38.85-3.45.83-5.2,0-2.51-.08-5-.11-7.54s-.06-5-.08-7.52,0-5-.06-7.5,0-5,0-7.47,0-5,0-7.45c0-3.88,0-7.76.06-11.65,0-1.53.15-2.91-.66-4.14a3.81,3.81,0,0,0-.39-.49c-.06-.07-.36-.41-.44-.38a2.59,2.59,0,0,0,1.25-1.54,3.9,3.9,0,0,0,.21-1.13c0-1,.05-1.9.06-2.86,0-3.1.07-6.33.13-9.48,0-1.67.07-3.35.1-5a10.36,10.36,0,0,0-1-4.2,2,2,0,0,0,.94-1.46,10.32,10.32,0,0,0,.09-1.84c.08-2.4.11-4.81.17-7.21,0-1.2.06-2.41.08-3.62,0-.28,0-.59,0-.87a3.09,3.09,0,0,0,.07-.52,6.64,6.64,0,0,0-.34-1.73,2.69,2.69,0,0,0-1-1.51c.06-.2.23-.27.38-.36a2.64,2.64,0,0,0,1.11-2.13c0-.22,0-.43,0-.65,0-.72,0-1.46.07-2.17l.06-2.32q.15-4.8.31-9.6.33-9.43.75-18.86c.18-4-2-7.4-5-7.73A1047.67,1047.67,0,0,0,7.55,6a4.41,4.41,0,0,0-1.06.25A8.64,8.64,0,0,0,4,8.05,6.63,6.63,0,0,0,3,9.7c-.35.66-.7,1.33-1,2A14.67,14.67,0,0,0,0,18.56Q.19,23.27.32,28l.15,4.84c0,.85.05,1.7.07,2.55,0,.63,0,1.28.06,1.9a16.14,16.14,0,0,1,0,1.7c0,.65,0,1.31.09,2a3.78,3.78,0,0,0,.22,1c.42,1,1.47,1.1,2.14,1.82a5.63,5.63,0,0,0-1.89.7.69.69,0,0,0-.24.21,1.12,1.12,0,0,0-.07.49l0,5.14a10.73,10.73,0,0,0,.08,2.2A11.28,11.28,0,0,1,1,54.77c.07,3.35.14,6.69.19,10q.06,3.09.1,6.16c0,1,.05,1.94.05,2.91a1.45,1.45,0,0,1-.06.41,3.38,3.38,0,0,0,.33,2.06,3.62,3.62,0,0,0,2.83,2.21l-1.65.79a1.87,1.87,0,0,0-1,.84,2.7,2.7,0,0,0-.19.86,88.67,88.67,0,0,0-.14,12.09c.12,4,.13,8,.14,12,0,3.38,0,6.76,0,10.14s0,6.78,0,10.16c0,2.44,0,4.88,0,7.31a6,6,0,0,1,0,1,6.15,6.15,0,0,0,.06,2.8,2.8,2.8,0,0,0,1.85,2.1,2.2,2.2,0,0,0-1.43,1,3.55,3.55,0,0,0-.32,1.4c-.07.82-.11,1.65-.11,2.48a13,13,0,0,1,0,2.16,27.06,27.06,0,0,0-.19,4.42c0,2,0,3.94-.07,5.92q-.06,5.11-.14,10.23t-.19,10.26c0,.76,0,1.53,0,2.29a13.36,13.36,0,0,1,0,1.9c0,.24-.11.46-.14.71a4.38,4.38,0,0,0,.07,1.84,1.78,1.78,0,0,0,1.26,1.3c-.5-.15-.94.52-1,1.18S1.07,187,1,187.57c0,.24-.06.49-.08.74-.05.49-.1,1-.13,1.46-.07,1-.1,2-.1,2.95a1.6,1.6,0,0,0,0,.49,1,1,0,0,0,.24.34A5.23,5.23,0,0,0,3.19,195l-1.93.84a.94.94,0,0,0-.42.28,1.86,1.86,0,0,0-.23,1.08c0,.86,0,1.71,0,2.57,0,.31-.09.58-.1.89l0,1.29c0,1.71-.1,3.42-.14,5.14,0,.12,0,.24,0,.36Q.17,212.6,0,217.77c-.12,3.93,2.12,7.3,5.08,7.59a1118.26,1118.26,0,0,0,223.45,0,4.93,4.93,0,0,0,3.25-1.86c.18-.22.42-.43.6-.68a24.49,24.49,0,0,0,3-6A12.12,12.12,0,0,0,236.07,212.76Z"/><path class="cls-2" d="M231,225.29a1094.89,1094.89,0,0,1-223.45,0c-2.95-.3-5.2-3.75-5.08-7.77,0-.89,0-1.79,0-2.68a20.92,20.92,0,0,1,.06-2.25c0-.26.13-.47.16-.73s0-.5.06-.76c.05-.62.08-1.25.12-1.87.12-1.75.25-3.5.37-5.25,0-.17,0-.33,0-.48a1.79,1.79,0,0,1,.18-.78.89.89,0,0,1,.46-.38,14,14,0,0,1,6.69-1.81,36.43,36.43,0,0,0,7.27-.84l3-.56h-1c-2.21,0-4.43-.13-6.64-.36-1.27-.14-2.54-.31-3.8-.54-.66-.1-3.79-.24-5.28-1-.48-.23-.8-.52-.81-.89,0-1.39,0-2.77,0-4.17a8.83,8.83,0,0,1,.1-2.07c.25-.6.12-.29.61-.56a6.46,6.46,0,0,1,1.47-.77,13.89,13.89,0,0,1,1.71-.3c2-.29,4.08-.56,6.13-.83l-1.57-.14-7.17-.6-1.14-.09a.45.45,0,0,1-.42-.24,1.46,1.46,0,0,1,0-.3c.07-2.12.14-4.25.22-6.37.17-5.22.34-10.46.42-15.68,0-.72,0-1.43,0-2.13.07-4.45-.14-9,.27-13.4,0-.41.27-4.85.26-4.85a221.71,221.71,0,0,1,22.31-1.08H28.4l-.59-.07h0q-4.39-.58-8.78-1.23c-1.58-.24-3.14-.48-4.7-.79-1.27-.25-2.51-.66-3.78-.93a3.59,3.59,0,0,0-1.18,0,12.63,12.63,0,0,1-3.56-.92,2.14,2.14,0,0,1-.27-.09,1.63,1.63,0,0,1-.62-.36,3,3,0,0,1-.57-1.84c0-.23,0-.47,0-.71,0-1.86-.13-3.65-.22-5.5-.09-2.15,0-4.29,0-6.43q0-7.78,0-15.57c0-1.21,0-2.41,0-3.62q0-6,0-11.9a19.86,19.86,0,0,0-.2-4.09,15.3,15.3,0,0,1,0-4.43,2.37,2.37,0,0,1,.23-.94,1.29,1.29,0,0,1,.58-.44,14.3,14.3,0,0,1,5.15-.74,23.75,23.75,0,0,0,5.05-.82,6.06,6.06,0,0,0,.7-.19,36.84,36.84,0,0,1-8-1.6,6.59,6.59,0,0,1-2.36-1.32,3.5,3.5,0,0,1-.39-.38,4.66,4.66,0,0,1-1.1-2.91,2.48,2.48,0,0,1,0-.39,2.7,2.7,0,0,1,.06-.36,11.56,11.56,0,0,0,0-2.28L3.8,68.36c0-2.16,0-4.32-.09-6.48s0-4.22-.28-6.32c-.11-1-.06-2.11-.1-3.17a31.26,31.26,0,0,1,.1-3.87,7.3,7.3,0,0,1,.38-2.05s0,0,0,0c.25-.64.66-1.26,1.23-1.23a12.67,12.67,0,0,0,2.59-.28c1.92-.26,3.84-.48,5.76-.64,3.93-.34,7.88-.53,11.83-.62,1.92,0,3.85,0,5.77-.06h.29c1.73,0,3.47-.09,5.2,0-3.71-.26-7.42-.59-11.12-1q-2.88-.34-5.78-.76c-3.28-.47-6.68-.42-9.9-.84a44.3,44.3,0,0,0-5.39-.42,1.51,1.51,0,0,0-.3,0,.41.41,0,0,1-.33-.12.94.94,0,0,1-.11-.38c-.29-2.65-.51-5.37-.56-8,0-2.19-.1-4.39-.16-6.58q-.13-5.78-.33-11.56c-.13-4,2.1-7.46,5-7.78A1024.65,1024.65,0,0,1,231,6.1c3,.32,5.2,3.84,5,7.89-.24,5.33-.45,10.68-.65,16-.08,2.33-.15,4.66-.23,7,0,1.4-.09,2.82-.13,4.24a11.7,11.7,0,0,1-.21,2.06c-.29,1.22-.22,2.55-.44,3.8a2.77,2.77,0,0,1-.39,1.11,1.59,1.59,0,0,1-.82.47l-.08,0a48.7,48.7,0,0,1-10.26,2.1c-.64.06-1.27.1-1.91.13l12,1.61a1.42,1.42,0,0,1,1,.47,2.57,2.57,0,0,1,.35,1c.07.38.12.76.16,1.14a33.68,33.68,0,0,1,.17,4,73.39,73.39,0,0,1-.68,7.57c-.18,1.19-.74,1.28-1.34,1.14-.39-.1-.8-.28-1.14-.34-.94-.18-1.89-.31-2.84-.41a52.34,52.34,0,0,0-5.73-.28c-1.25,0-2.49,0-3.74,0l-15.52.29.2.06c5.81,1.7,11.88.78,17.79,1.83,2.38.42,4.76,1.15,7.16,1a5.78,5.78,0,0,1,2.68,0,3.4,3.4,0,0,1,1.68,2,9.34,9.34,0,0,1,.65,3.35c0,.69.05,1.37.08,2,.15,3.81-.06,7.6-.22,11.39q-.06,1-.09,2a2.74,2.74,0,0,1-.3,1.37,1.29,1.29,0,0,1-.66.46h0a4,4,0,0,1-1.65.29,3.12,3.12,0,0,0-.51-.07c-.65.09-1.32.39-2,.51a12.55,12.55,0,0,1-1.93.23l.77.25,5.34,1.69a1.26,1.26,0,0,1,.65.37c.7.88.54,3.89.61,5,.13,2.2.19,4.41.21,6.63,0,1,0,2.1,0,3.15,0,1.83,0,3.66,0,5.48l0,3.83c0,5.35-.08,10.68-.11,16,0,2.38,0,4.76,0,7.14,0,2.54.24,6.92-.73,9.2a2.23,2.23,0,0,1-1.3,1.26,5.16,5.16,0,0,1-1.5.32c-8.09.72-16.16,1.47-24.25,2.2h-.16a.1.1,0,0,1-.07,0h.52a266,266,0,0,1,27.31,2.17c.43.07.56,1.33.63,1.74.21,1.3.31,2.63.39,3.94,0,.23,0,.46,0,.69.24,4.22.31,8.46.34,12.69v.21q0,.61,0,1.2c0,.48,0,.94,0,1.4,0,2.44.13,5.13-.06,7.54a12.73,12.73,0,0,1-.36,2.21,4.06,4.06,0,0,1-.32,1,3.47,3.47,0,0,1-1.67,1.44,6.35,6.35,0,0,1-.67.28,35.61,35.61,0,0,1-4.55,1.31l.45.13c1.61.39,3.23.82,4.85,1.24a3.42,3.42,0,0,1,1.67.89,3.14,3.14,0,0,1,.58,1,6.6,6.6,0,0,1,.36,1.52l.06.54c.15,1.78-.06,3.53.09,5.3.08.91.12,1.8.15,2.72.07,1.75.12,3.52.19,5.27.05,1.58.11,3.16.16,4.74C236.23,221.51,234,225,231,225.29Z"/><path class="cls-3" d="M235.14,37c0,1.4-.09,2.82-.13,4.24a11.7,11.7,0,0,1-.21,2.06c-.29,1.22-.22,2.55-.44,3.8a2.77,2.77,0,0,1-.39,1.11,1.59,1.59,0,0,1-.82.47l-.08,0a48.7,48.7,0,0,1-10.26,2.1c-.64.06-1.27.1-1.91.13l12,1.61a1.42,1.42,0,0,1,1,.47,2.57,2.57,0,0,1,.35,1c.07.38.12.76.16,1.14-5.19-.46-10.41-.67-15.73-.72a704,704,0,0,0-113.86,8.34c-18.9,2.9-37.77,5.94-56.73,8-14.58,1.6-29.56,3.87-44.33,3.73a2.7,2.7,0,0,1,.06-.36,11.56,11.56,0,0,0,0-2.28L3.8,68.36C9.88,67.63,16,67.2,22.08,66.59Q38.25,65,54.38,62.76c38.35-5.27,76.45-12.59,115-15.14,2.81-.17,5.62-.35,8.43-.5-7.19-.54-14.39-1.06-21.58-1.47-9.64-.56-19.32-1.28-29-1.19-10.06.13-20.09,1.12-30.14,1.48-20,.74-39.91,2.3-59.9,2.65-9.88.17-20.13,1-29.91-1.27q-1.75-.41-3.48-.87c.25-.64.66-1.26,1.23-1.23a12.67,12.67,0,0,0,2.59-.28c1.92-.26,3.84-.48,5.76-.64,3.93-.34,7.88-.53,11.83-.62,1.92,0,3.85,0,5.77-.06h.29c1.73,0,3.47-.09,5.2,0-3.71-.26-7.42-.59-11.12-1q-2.88-.34-5.78-.76c-3.28-.47-6.68-.42-9.9-.84a44.3,44.3,0,0,0-5.39-.42,1.51,1.51,0,0,0-.3,0,.41.41,0,0,1-.33-.12.94.94,0,0,1-.11-.38c-.29-2.65-.51-5.37-.56-8,0-2.19-.1-4.39-.16-6.58a96.58,96.58,0,0,1,10.28-1.3c11.29-.72,22.62-.56,33.92-1.31,19.57-1.28,39.41-3.28,59-1.68,19.44,1.6,38.8,4.84,58.19,7.3,20.23,2.57,40.47,4.91,60.71,7.31Zm-.83,123.18c-.07-.41-.2-1.67-.63-1.74a266,266,0,0,0-27.31-2.17h-.52a.1.1,0,0,0,.07,0h.16c8.09-.73,16.16-1.48,24.25-2.2a5.16,5.16,0,0,0,1.5-.32,2.23,2.23,0,0,0,1.3-1.26c1-2.28.73-6.66.73-9.2,0-2.38,0-4.76,0-7.14-37.25-1.54-74.49-3.78-111.66-7.33q2.37-.78,4.75-1.53a181.16,181.16,0,0,1,42.83-7.8c21.42-1.41,42.95-.12,64.22-3.19,0-1.82,0-3.65,0-5.48-22,.95-44-.26-66,.67a191.79,191.79,0,0,0-41.18,6.22c-10.2,2.7-20.33,6-30.57,8.4q-19.5-2.2-39-5Q42.54,119,27.82,116.45c-.52-.09-1-.15-1.56-.24a139.06,139.06,0,0,1,17.06-4.61c15.57-3.29,31.4-4.76,47.09-6.64,33.66-4,67.37-7.22,101.09-10,14.17-1.19,28.29-2.21,42.12-6,.16-3.79.37-7.58.22-11.39,0-.63,0-1.31-.08-2-12.17-2.15-24.48-2-36.84-1.24-17.17,1-34.33,2.15-51.48,3.78C111.64,81.23,77.58,84.17,44,90.5c-13.85,2.61-27.18,6.91-39.88,14.2,0,1.21,0,2.41,0,3.62q0,7.79,0,15.57c0,2.14-.11,4.28,0,6.43.09,1.85.22,3.64.22,5.5,0,.24,0,.48,0,.71,3.14,1.08,6.39,1.79,9.48,2.66,8.8,2.5,17.65,4.23,26.56,5.87,18.13,3.33,36.29,6.25,54.5,8.65,35.83,4.73,71.88,7.09,107.85,9q16,.82,32,1.45C234.62,162.82,234.52,161.49,234.31,160.19Zm.75,37.2a3.14,3.14,0,0,0-.58-1,3.42,3.42,0,0,0-1.67-.89c-1.62-.42-3.24-.85-4.85-1.24l-.45-.13a35.61,35.61,0,0,0,4.55-1.31,6.35,6.35,0,0,0,.67-.28,3.47,3.47,0,0,0,1.67-1.44,4.06,4.06,0,0,0,.32-1,12.73,12.73,0,0,0,.36-2.21c.19-2.41.08-5.1.06-7.54,0-.46,0-.92,0-1.4-29.68,1.48-59.31,2.32-89,.31-32.6-2.18-65.2-6.38-97.7-10.39-9.29-1.14-18.55-2.44-27.85-3.34a166.62,166.62,0,0,0-16.82-1.27c-.08,5.22-.25,10.46-.42,15.68a98.47,98.47,0,0,0,11.86,3.33c8.36,1.89,16.7,3.38,25.14,4.5,16.49,2.21,33,4,49.52,5.92q14.13,1.65,28.27,3.12c-6.86.8-13.72,1.53-20.6,2.05-17.72,1.36-35.41,3.52-53.14,4.68-13.7.9-27.36.46-41,0,0,.15,0,.31,0,.48-.12,1.75-.25,3.5-.37,5.25,0,.62-.07,1.25-.12,1.87,13.06,3.09,26.58,2.94,39.79,2.16a399,399,0,0,0,52.91-7c18.52-3.64,37.51-4.92,56.2-6.47l1-.07c12.21.78,24.43,1.26,36.68,1.24,15.37,0,30.7-.52,46-2.07A6.6,6.6,0,0,0,235.06,197.39Z"/><path class="cls-4" d="M52.89,212.72a6,6,0,0,1-3.75,1.21,3.53,3.53,0,0,1,.88,1.25,4.14,4.14,0,0,1,0,3.24c-.93,2-2.9,1.9-4.42,1.29s-2.71-3-2.67-5.07a2.61,2.61,0,0,1,2-2.78A18.59,18.59,0,0,1,42.26,209c-2.16-2.9-3.69-8-2.67-11.95.48-1.84,2.1-3.55,3.66-2.74a28.42,28.42,0,0,1,5.29,3.91c.47.39.92.8,1.41,1.14.23.16,1.14.67.47.3a8.42,8.42,0,0,1,4.17,4.57C55.76,207,55.21,211.17,52.89,212.72Zm-16.3-24.09a5.89,5.89,0,0,1-.24-.58,3.92,3.92,0,0,0-1.15-1.53,2.6,2.6,0,0,0-1.61-.57,3.22,3.22,0,0,0-1.52.49A2.55,2.55,0,0,0,31,187.61a5.66,5.66,0,0,0-.45,3.7,4.47,4.47,0,0,0,1.15,2.21,2.62,2.62,0,0,0,1.94.91,5.26,5.26,0,0,0,1.29-.25C36.59,193.59,37.6,190.67,36.59,188.63ZM195.45,160c-.43-2.09-1.94-3.59-3.57-3.61-.58,0-1.07-.22-1.7-.22a5.91,5.91,0,0,0-2.81,1.08,7.51,7.51,0,0,0-3.65,3.88c-.73,1.88-.57,4.5.69,5.9-.19.26-.38.51-.6.76-.92,1-.21,3.53,1.05,3.34a7,7,0,0,1,1.29.1,3.8,3.8,0,0,0,1.74-.41,11.08,11.08,0,0,0,1.39-.67,2.15,2.15,0,0,0,.8-.81c.07-.12.58-1.15.26-.72a1.55,1.55,0,0,0,.29-.69,5.85,5.85,0,0,0,2.62-1.91l.5-.48A5.94,5.94,0,0,0,195.45,160Zm-4.75-9.73a2.21,2.21,0,0,0-1-.24,3.6,3.6,0,0,0-1.07.61,1.31,1.31,0,0,0-.35,1.38.82.82,0,0,0,1,.65,2.88,2.88,0,0,0,1-.35,3.52,3.52,0,0,0,.65-1C191.14,151,191.1,150.38,190.7,150.25ZM198.56,137c-.09-.3-.18-.6-.28-.9-2.11-2-3.79-2.16-5.06-.61a4.82,4.82,0,0,0-.67,1.1c-.74,1.72-.41,4.26,1,5.24a2.44,2.44,0,0,0,2.38.41,11.62,11.62,0,0,0,1.24-.68l.62-.63a3.43,3.43,0,0,0,.63-1.3A4.8,4.8,0,0,0,198.56,137ZM190.2,55.12a7.3,7.3,0,0,0-.73-2.4,6.74,6.74,0,0,0-1.75-1.78,7.45,7.45,0,0,0-1.6-1.14,6,6,0,0,0-2-.31c-1.12-.09-1.84.87-2.1,2a12.23,12.23,0,0,0-6-3.64c-2.09-.61-7.3-.34-6.87,4.12.34,3.5,2.27,5.6,4.44,7.38s4,3.08,6.15,2.73c1.8.28,4,.63,4.86-2.08a5.13,5.13,0,0,0,.22-2.13,3,3,0,0,0,3.72.94C189.85,58.62,190.45,56.56,190.2,55.12Zm-25.07,2.3a14.4,14.4,0,0,0-1.43-1.74,4,4,0,0,0-2-.87,5.67,5.67,0,0,0-2-.32,3,3,0,0,0-1.56,1.21,1.48,1.48,0,0,0-.23,1.19,4.65,4.65,0,0,0,.69,1.92,5.33,5.33,0,0,0,2,1.27,4,4,0,0,0,1.91.7,8.7,8.7,0,0,0,2.1-.51C165.51,60,165.79,58.29,165.13,57.42Zm23.72,20.37a4.33,4.33,0,0,0-1-2.25,4.49,4.49,0,0,0-2.37-1.43,1.63,1.63,0,0,0-1.94.87,3.18,3.18,0,0,0-.14,2.7l.37,1a4.35,4.35,0,0,0,1.15,1.74,2.75,2.75,0,0,0,1.65.83,2.14,2.14,0,0,0,1.86-1.13A3.72,3.72,0,0,0,188.85,77.79ZM143.13,156a7.76,7.76,0,0,0-10.31,1.48,6.61,6.61,0,0,0,0,7.42c3.45,4.21,9.5,2.42,11.68-2.79l.13-.16C146.29,159.91,145.11,156.51,143.13,156Zm-16.3-3.33a2.78,2.78,0,0,0-2.51-.79,12.57,12.57,0,0,0-1.93.74,2.4,2.4,0,0,0-1.24,2.51,2,2,0,0,0,1.7,2,9.88,9.88,0,0,0,2,.17c1,0,1.56-.76,2.25-1.55A2.36,2.36,0,0,0,126.83,152.67ZM35.26,38.05c-1.34-2.57-4.2-2.07-5.91-.51a17,17,0,0,0-2.1,2.21,5.49,5.49,0,0,0-.95,2.46l-.12,1.13c.07-.43.07-.39,0,.12-.31,2,.67,3.92,2.3,4h.22l.1,0a3,3,0,0,0,2.7-.46,20.83,20.83,0,0,0,1.68-1.33C35,44.13,36.72,40.86,35.26,38.05ZM24,39.7a3.54,3.54,0,0,0-2,1.48,18.11,18.11,0,0,0-1.17,2.23,3.28,3.28,0,0,0,.74,3.71c1,.71,2.18.3,2.8-1,.13-.26.26-.51.4-.76l0,0,.26-.4a4.75,4.75,0,0,0,.75-1.64c.07-.29.14-.58.22-.86C26.55,40.83,25.16,39.25,24,39.7ZM46.26,27.61a1.86,1.86,0,0,0-1.68.19,5.8,5.8,0,0,0-.86,1.13,2.23,2.23,0,0,0-.2,2.13,1.25,1.25,0,0,0,1.5.81,2.65,2.65,0,0,0,1.17-.41,3.61,3.61,0,0,0,1-1.79C47.38,28.88,46.89,27.75,46.26,27.61Zm54.85,61a2.61,2.61,0,0,0,.16-.42c.6-1.83.44-4-1-5.06a5.58,5.58,0,0,0-.6-.39,5.51,5.51,0,0,0-5-1.83c-1.9.19-3.57,1.47-5.28,2.48C87,84.8,86.3,89.17,87.21,92a7.21,7.21,0,0,0,1.18,2.26,23.42,23.42,0,0,0-3.88,2.88A6.44,6.44,0,0,0,83.19,99c-1.27,1.48-1.78,3.48-.57,6.16,2.3,5.09,8.93,3.75,12.38,2,2.09-1,4.48-2.55,5.57-5.29,1.23-3.07.32-6.76-1.87-8.47A7.91,7.91,0,0,0,101.11,88.61ZM77.84,100.5c-.58-.18-.91.2-1.39.5l-.11.07-.15.07-.51.18c-.75.22-1.11,1.41-.83,2.29a1.18,1.18,0,0,0,1.82.81,6.4,6.4,0,0,0,1.09-1,2.34,2.34,0,0,0,.8-1.71C78.53,101.2,78.29,100.63,77.84,100.5Zm-7.44-6-.32-.17c-1.61-1.65-4-.7-5.42,1a9.31,9.31,0,0,0-2.12,4.73,4.76,4.76,0,0,0,.72,3.58,2.32,2.32,0,0,0,2.71,1c2.17-1,5.12-3,5.4-6.27l.09-.36A3.57,3.57,0,0,0,70.4,94.49ZM221.55,212.24a4.54,4.54,0,0,0-1.6-2.75c-1.39-1.08-3.07-.67-4.22.72L214,212.33a5.33,5.33,0,0,0-.25,5.59c1,1.67,2.74,2.16,4.15,1.1l2.08-1.58C221.34,216.39,221.88,214.23,221.55,212.24Z"/><path class="cls-5" d="M53.6,210.72a6,6,0,0,1-3.75,1.22,3.58,3.58,0,0,1,.88,1.24,4.14,4.14,0,0,1,0,3.24c-.93,2.05-2.91,1.91-4.42,1.29s-2.71-3-2.67-5.07a2.61,2.61,0,0,1,2-2.77A18.66,18.66,0,0,1,43,207c-2.16-2.89-3.7-8-2.67-11.94.48-1.85,2.1-3.55,3.65-2.75a28.16,28.16,0,0,1,5.3,3.91,16.61,16.61,0,0,0,1.4,1.14c.24.17,1.15.67.47.3a8.42,8.42,0,0,1,4.17,4.57C56.47,205,55.91,209.18,53.6,210.72ZM37.3,186.64a3.83,3.83,0,0,1-.24-.59,3.88,3.88,0,0,0-1.15-1.52,2.64,2.64,0,0,0-1.62-.58,3.12,3.12,0,0,0-1.51.5,2.54,2.54,0,0,0-1.13,1.16,5.75,5.75,0,0,0-.44,3.71,4.47,4.47,0,0,0,1.14,2.2,2.58,2.58,0,0,0,1.94.91,5.25,5.25,0,0,0,1.3-.25C37.3,191.59,38.31,188.67,37.3,186.64Zm158.53-27.73c-.43-2.09-1.94-3.59-3.57-3.61-.58,0-1.07-.22-1.7-.22a5.91,5.91,0,0,0-2.81,1.08A7.51,7.51,0,0,0,184.1,160c-.73,1.88-.57,4.5.69,5.9-.19.26-.38.51-.6.76-.92,1.05-.21,3.53,1.05,3.34a7,7,0,0,1,1.29.1,3.8,3.8,0,0,0,1.74-.41,11.08,11.08,0,0,0,1.39-.67,2.15,2.15,0,0,0,.8-.81c.07-.12.58-1.15.26-.72a1.55,1.55,0,0,0,.29-.69,5.85,5.85,0,0,0,2.62-1.91l.5-.48A5.94,5.94,0,0,0,195.83,158.91Zm-4.75-9.73a2.21,2.21,0,0,0-1-.24,3.6,3.6,0,0,0-1.07.61,1.31,1.31,0,0,0-.35,1.38.82.82,0,0,0,1,.65,2.88,2.88,0,0,0,1-.35,3.52,3.52,0,0,0,.65-1C191.52,149.91,191.47,149.31,191.08,149.18ZM198.94,136c-.09-.3-.19-.6-.28-.9-2.11-2-3.79-2.16-5.06-.61a4.49,4.49,0,0,0-.67,1.1c-.74,1.72-.41,4.26,1,5.24a2.44,2.44,0,0,0,2.38.41,11.62,11.62,0,0,0,1.24-.68l.62-.63a3.43,3.43,0,0,0,.63-1.3A4.89,4.89,0,0,0,198.94,136Zm-8-82.84a7,7,0,0,0-.72-2.41,6.9,6.9,0,0,0-1.75-1.78,7.22,7.22,0,0,0-1.61-1.13,5.92,5.92,0,0,0-2-.32c-1.11-.08-1.83.87-2.09,2.06a12.3,12.3,0,0,0-6-3.65c-2.09-.6-7.3-.34-6.87,4.12.34,3.5,2.26,5.6,4.44,7.39s4,3.07,6.15,2.73c1.79.27,4,.63,4.86-2.08a5.13,5.13,0,0,0,.21-2.13A4.51,4.51,0,0,0,187,57a4.2,4.2,0,0,0,2.3-.13C190.56,56.62,191.16,54.57,190.9,53.13Zm-25.07,2.3a13.67,13.67,0,0,0-1.43-1.74,3.9,3.9,0,0,0-2-.87,5.48,5.48,0,0,0-2-.32,2.87,2.87,0,0,0-1.56,1.21,1.49,1.49,0,0,0-.24,1.18,5.05,5.05,0,0,0,.69,1.93,5.55,5.55,0,0,0,2,1.26,3.88,3.88,0,0,0,1.91.7,8.36,8.36,0,0,0,2.1-.51C166.22,58,166.5,56.29,165.83,55.43Zm23.73,20.36a4.29,4.29,0,0,0-1-2.24,4.51,4.51,0,0,0-2.38-1.44,1.63,1.63,0,0,0-1.93.87,3.15,3.15,0,0,0-.14,2.7c.12.33.24.66.37,1a4.21,4.21,0,0,0,1.15,1.74,2.67,2.67,0,0,0,1.65.83,2.12,2.12,0,0,0,1.85-1.12A3.69,3.69,0,0,0,189.56,75.79ZM143.84,154a7.75,7.75,0,0,0-10.31,1.49,6.59,6.59,0,0,0,0,7.42c3.45,4.21,9.49,2.41,11.68-2.8l.12-.15C147,157.91,145.81,154.51,143.84,154Zm-16.3-3.32a2.79,2.79,0,0,0-2.51-.8,11.67,11.67,0,0,0-1.93.75,2.39,2.39,0,0,0-1.24,2.5,2,2,0,0,0,1.7,2,11.48,11.48,0,0,0,2,.17c1,0,1.57-.76,2.26-1.56A2.35,2.35,0,0,0,127.54,150.68ZM35.68,36.85c-1.33-2.57-4.19-2.07-5.91-.51a17.05,17.05,0,0,0-2.1,2.21A5.33,5.33,0,0,0,26.73,41l-.12,1.14c.07-.44.07-.39,0,.12-.31,2.05.67,3.91,2.3,4h.21l.11,0a2.92,2.92,0,0,0,2.69-.47,21,21,0,0,0,1.69-1.33C35.45,42.92,37.15,39.66,35.68,36.85ZM24.44,38.5a3.54,3.54,0,0,0-2,1.48,19.39,19.39,0,0,0-1.16,2.22A3.31,3.31,0,0,0,22,45.92c1,.71,2.19.29,2.81-1l.39-.75,0,0,.26-.4a4.73,4.73,0,0,0,.74-1.64c.07-.29.15-.58.23-.87C27,39.62,25.59,38.05,24.44,38.5ZM46.69,26.41A1.83,1.83,0,0,0,45,26.6a5.51,5.51,0,0,0-.86,1.13,2.26,2.26,0,0,0-.21,2.13,1.27,1.27,0,0,0,1.5.81,3,3,0,0,0,1.18-.41,3.56,3.56,0,0,0,1-1.79C47.8,27.68,47.32,26.55,46.69,26.41Zm55.13,60.21c.06-.14.11-.27.16-.42.6-1.84.43-4-1-5.06a5.09,5.09,0,0,0-.6-.39,5.48,5.48,0,0,0-5-1.83c-1.9.19-3.58,1.46-5.29,2.48-2.37,1.4-3,5.77-2.14,8.65a7.31,7.31,0,0,0,1.17,2.26,23.32,23.32,0,0,0-3.87,2.88A6.29,6.29,0,0,0,83.89,97c-1.26,1.48-1.77,3.48-.56,6.17,2.3,5.09,8.92,3.74,12.38,2,2.09-1.06,4.48-2.55,5.57-5.3,1.23-3.06.32-6.75-1.87-8.46A8,8,0,0,0,101.82,86.62ZM78.25,99.34c-.58-.18-.91.2-1.39.5l-.1.07-.16.07a3.82,3.82,0,0,1-.51.18c-.75.22-1.11,1.41-.83,2.29a1.18,1.18,0,0,0,1.82.81,6,6,0,0,0,1.09-1,2.27,2.27,0,0,0,.8-1.71A1.33,1.33,0,0,0,78.25,99.34Zm-7.44-6a3.3,3.3,0,0,0-.32-.18c-1.61-1.65-4-.7-5.42,1A9.31,9.31,0,0,0,63,98.9a4.76,4.76,0,0,0,.72,3.58,2.32,2.32,0,0,0,2.71,1c2.17-1,5.12-3,5.4-6.27a3.57,3.57,0,0,1,.1-.35A3.58,3.58,0,0,0,70.81,93.34Zm151.44,116.9a4.58,4.58,0,0,0-1.59-2.75,3,3,0,0,0-4.22.72l-1.76,2.13a5.31,5.31,0,0,0-.25,5.59c1,1.67,2.74,2.16,4.14,1.09l2.09-1.57C222.05,214.39,222.59,212.24,222.25,210.24Z"/><path class="cls-6" d="M52.89,212a6,6,0,0,1-3.75,1.21,3.63,3.63,0,0,1,.88,1.25,4.14,4.14,0,0,1,0,3.24c-.93,2-2.9,1.9-4.42,1.29s-2.71-3-2.67-5.07a2.63,2.63,0,0,1,2-2.78,18.59,18.59,0,0,1-2.68-2.91c-2.16-2.9-3.69-8-2.67-12,.48-1.84,2.1-3.55,3.66-2.74a28.42,28.42,0,0,1,5.29,3.91c.47.39.92.8,1.41,1.14.23.17,1.14.67.47.3a8.42,8.42,0,0,1,4.17,4.57C55.76,206.27,55.21,210.46,52.89,212Zm-16.3-24.09a5,5,0,0,1-.24-.58,3.81,3.81,0,0,0-1.15-1.52,2.55,2.55,0,0,0-1.61-.58,3.22,3.22,0,0,0-1.52.49A2.55,2.55,0,0,0,31,186.9a5.66,5.66,0,0,0-.45,3.7,4.47,4.47,0,0,0,1.15,2.21,2.62,2.62,0,0,0,1.94.91,5.26,5.26,0,0,0,1.29-.25C36.59,192.88,37.6,190,36.59,187.92ZM195.45,159.6c-.43-2.09-1.94-3.59-3.57-3.61-.58,0-1.07-.22-1.7-.22a5.91,5.91,0,0,0-2.81,1.08,7.51,7.51,0,0,0-3.65,3.88c-.73,1.88-.57,4.5.69,5.9-.19.26-.38.51-.6.76-.92,1-.21,3.52,1.05,3.34a7,7,0,0,1,1.29.1,3.8,3.8,0,0,0,1.74-.41,11.08,11.08,0,0,0,1.39-.67,2.15,2.15,0,0,0,.8-.81c.07-.12.58-1.15.26-.72a1.55,1.55,0,0,0,.29-.69,5.85,5.85,0,0,0,2.62-1.91l.5-.48A5.94,5.94,0,0,0,195.45,159.6Zm-4.75-9.73a2.21,2.21,0,0,0-1-.24,3.6,3.6,0,0,0-1.07.61,1.31,1.31,0,0,0-.35,1.38.82.82,0,0,0,1,.65,2.88,2.88,0,0,0,1-.35,3.52,3.52,0,0,0,.65-1C191.14,150.6,191.1,150,190.7,149.87Zm7.86-13.21c-.09-.3-.18-.6-.28-.9-2.11-2-3.79-2.16-5.06-.61a4.82,4.82,0,0,0-.67,1.1c-.74,1.72-.41,4.26,1,5.24a2.44,2.44,0,0,0,2.38.41,11.62,11.62,0,0,0,1.24-.68l.62-.63a3.43,3.43,0,0,0,.63-1.3A4.8,4.8,0,0,0,198.56,136.66ZM190.2,54.42a7.28,7.28,0,0,0-.73-2.41,6.74,6.74,0,0,0-1.75-1.78,7.45,7.45,0,0,0-1.6-1.14,6.23,6.23,0,0,0-2-.31c-1.12-.09-1.84.87-2.1,2.06a12.26,12.26,0,0,0-6-3.65c-2.09-.61-7.3-.34-6.87,4.12.34,3.5,2.27,5.6,4.44,7.39s4,3.07,6.15,2.72c1.8.28,4,.64,4.86-2.08a5.13,5.13,0,0,0,.22-2.13,4.2,4.2,0,0,0,1.43,1.08,4.26,4.26,0,0,0,2.29-.13C189.85,57.91,190.45,55.85,190.2,54.42Zm-25.07,2.29A13.56,13.56,0,0,0,163.7,55a3.88,3.88,0,0,0-2-.87,5.24,5.24,0,0,0-2-.32,2.88,2.88,0,0,0-1.56,1.2,1.48,1.48,0,0,0-.23,1.19,4.65,4.65,0,0,0,.69,1.92,5.33,5.33,0,0,0,2,1.27,4,4,0,0,0,1.91.7,8.26,8.26,0,0,0,2.1-.51C165.51,59.28,165.79,57.58,165.13,56.71Zm23.72,20.37a4.33,4.33,0,0,0-1-2.25,4.49,4.49,0,0,0-2.37-1.43,1.63,1.63,0,0,0-1.94.87,3.18,3.18,0,0,0-.14,2.7l.37,1a4.35,4.35,0,0,0,1.15,1.74,2.75,2.75,0,0,0,1.65.83,2.12,2.12,0,0,0,1.86-1.13A3.72,3.72,0,0,0,188.85,77.08Zm-45.72,78.21a7.76,7.76,0,0,0-10.31,1.48,6.62,6.62,0,0,0,0,7.43c3.45,4.21,9.5,2.41,11.68-2.8l.13-.16C146.29,159.2,145.11,155.8,143.13,155.29ZM126.83,152c-.83-.6-1.51-1.08-2.51-.8a12.57,12.57,0,0,0-1.93.74,2.4,2.4,0,0,0-1.24,2.51,2,2,0,0,0,1.7,2,10.64,10.64,0,0,0,2,.18c1,0,1.56-.77,2.25-1.56A2.35,2.35,0,0,0,126.83,152ZM35.26,37.63c-1.34-2.57-4.2-2.08-5.91-.52a16.46,16.46,0,0,0-2.1,2.22,5.41,5.41,0,0,0-.95,2.45l-.12,1.13c.07-.43.07-.39,0,.12-.31,2,.67,3.92,2.3,4h.22l.1,0a3,3,0,0,0,2.7-.47,20.83,20.83,0,0,0,1.68-1.33C35,43.7,36.72,40.44,35.26,37.63ZM24,39.27a3.58,3.58,0,0,0-2,1.48A18.86,18.86,0,0,0,20.88,43a3.28,3.28,0,0,0,.74,3.71c1,.72,2.18.3,2.8-1,.13-.26.26-.51.4-.76a.11.11,0,0,0,0-.05l.26-.39a4.89,4.89,0,0,0,.75-1.65c.07-.29.14-.58.22-.86C26.55,40.4,25.16,38.82,24,39.27ZM46.26,27.18a1.86,1.86,0,0,0-1.68.2,5.73,5.73,0,0,0-.86,1.12,2.25,2.25,0,0,0-.2,2.14,1.27,1.27,0,0,0,1.5.81A2.8,2.8,0,0,0,46.19,31a3.61,3.61,0,0,0,1-1.79C47.38,28.46,46.89,27.32,46.26,27.18Zm54.85,60.73a3.61,3.61,0,0,0,.16-.42c.6-1.84.44-4-1-5.07a5.58,5.58,0,0,0-.6-.39,5.53,5.53,0,0,0-5-1.83c-1.9.19-3.57,1.47-5.28,2.48-2.37,1.41-3.06,5.78-2.15,8.66a7.27,7.27,0,0,0,1.18,2.25,22.9,22.9,0,0,0-3.88,2.89,6.25,6.25,0,0,0-1.32,1.76c-1.27,1.48-1.78,3.48-.57,6.17,2.3,5.09,8.93,3.74,12.38,2,2.09-1.05,4.48-2.55,5.57-5.29,1.23-3.07.32-6.76-1.87-8.47A7.88,7.88,0,0,0,101.11,87.91ZM77.84,100.09c-.58-.18-.91.19-1.39.5l-.11.06-.15.08-.51.18c-.75.22-1.11,1.4-.83,2.29a1.18,1.18,0,0,0,1.82.81,6.87,6.87,0,0,0,1.09-1,2.34,2.34,0,0,0,.8-1.72A1.3,1.3,0,0,0,77.84,100.09Zm-7.44-6-.32-.17c-1.61-1.65-4-.71-5.42,1a9.27,9.27,0,0,0-2.12,4.73,4.77,4.77,0,0,0,.72,3.58,2.32,2.32,0,0,0,2.71,1c2.17-1,5.12-3,5.4-6.27l.09-.36A3.57,3.57,0,0,0,70.4,94.08ZM221.55,211.53a4.54,4.54,0,0,0-1.6-2.75,2.94,2.94,0,0,0-4.22.72L214,211.63a5.31,5.31,0,0,0-.25,5.58c1,1.67,2.74,2.16,4.15,1.1l2.08-1.58C221.34,215.68,221.88,213.52,221.55,211.53Z"/><path class="cls-4" d="M4.18,191.91a15.11,15.11,0,0,0-.15,2c0,.34,0,.68,0,1,0,.13,0,.22,0,.35a6.63,6.63,0,0,1,0,1.09c0,.29,0,.59.06.87-.48-.23-.8-.52-.81-.89,0-1.39,0-2.77,0-4.17a8.83,8.83,0,0,1,.1-2.07c.25-.6.12-.29.61-.56a6.46,6.46,0,0,1,1.47-.77,13.89,13.89,0,0,1,1.71-.3c2-.29,4.08-.56,6.13-.83l-1.57-.14c.44,0,.87,0,1.31-.06l1.26-.08a5.43,5.43,0,0,0,1.06-.06A68.32,68.32,0,0,0,7,189.61a9,9,0,0,0-2.16,1.06,1.43,1.43,0,0,0-.48.52A2.13,2.13,0,0,0,4.18,191.91Z"/><path class="cls-4" d="M4.43,89.09v.09c0,.32.11.63.14,1,.08,1-.06,2,0,2.93a9.74,9.74,0,0,0,1.33,5.21c1.16,1.7,3,2.2,4.65,2.6L6.57,101a1.24,1.24,0,0,0-.79.19,2.53,2.53,0,0,0-.65,1.59,55,55,0,0,0-.69,11.2,5.16,5.16,0,0,0,2,1c-1,0-1.52,1.61-1.3,2.86a5.75,5.75,0,0,0,1.71,3c-1.14,0-1.89,1.69-2.08,3.22-.16,1.22-.11,2.47-.27,3.7a5.26,5.26,0,0,0,0,1.19c0,.55,0,1.09,0,1.64a31,31,0,0,0,.28,4.42c.11.81.26,1.62.43,2.4.09.4.19.79.3,1.18l.06.25a1.63,1.63,0,0,1-.62-.36,3.86,3.86,0,0,1-.59-2.55c0-1.86-.13-3.65-.22-5.5-.09-2.15,0-4.29,0-6.43q0-7.78,0-15.57T4.07,92.8a19.86,19.86,0,0,0-.2-4.09,15.3,15.3,0,0,1,0-4.43,2.37,2.37,0,0,1,.23-.94,1.29,1.29,0,0,1,.58-.44,14.3,14.3,0,0,1,5.15-.74,23.75,23.75,0,0,0,5.05-.82,9.17,9.17,0,0,0,1.28-.18c-2.76.8-5.54,1.5-8.34,2.13a5.92,5.92,0,0,0-1.71.56,2.91,2.91,0,0,0-1.32,1.49,6.47,6.47,0,0,0-.33,2.13C4.46,88,4.4,88.55,4.43,89.09Z"/><path class="cls-4" d="M26.61,142.77c-5.5.39-11,1.64-16.47,1.91a9.75,9.75,0,0,0-4.05.75c-.89.46-1.79,2.92-.73,3.8a1.24,1.24,0,0,0,.51.23,11.14,11.14,0,0,0,3,.34,10.13,10.13,0,0,0-3.65,2,2,2,0,0,0-.55.57,2.67,2.67,0,0,0-.24.86,9.5,9.5,0,0,0-.27,2.38,11.09,11.09,0,0,1,0,1.63q-.14,3.24,0,6.48a2.64,2.64,0,0,0,.1.74,2,2,0,0,0,.52.71l1.35,1.3a.19.19,0,0,1,.09.11.35.35,0,0,1-.09.3,10.67,10.67,0,0,0-1.84,3.31A8,8,0,0,0,3.81,172a20.4,20.4,0,0,0,.3,4.82,3.84,3.84,0,0,0,.61,1.67,2.45,2.45,0,0,0,1,.67,31.29,31.29,0,0,0,4.74,1.56L4.26,181s-.2,3.23-.25,3.54a2.2,2.2,0,0,0,0,1.14,3.62,3.62,0,0,0,.66,1.23l-1.14-.09a.45.45,0,0,1-.42-.24,1.46,1.46,0,0,1,0-.3c.27-8,.56-16.13.68-24.18.07-4.45-.14-9,.27-13.4,0-.41.27-4.85.26-4.85A221.71,221.71,0,0,1,26.61,142.77Z"/><path class="cls-4" d="M27.81,142.71h0a.57.57,0,0,0,.13,0Z"/><path class="cls-4" d="M31.29,43.62c-3.31.56-6.71-.06-10,.7-1.09.24-2.16.64-3.26.79s-2,0-3,.09a20.47,20.47,0,0,0-7.48,1.91,4.87,4.87,0,0,0-2.27,1.61A4.57,4.57,0,0,0,4.7,49.8a6.82,6.82,0,0,0-.47,2.47,5.27,5.27,0,0,1,0,.69c0,.7-.11,1.4-.12,2.11a22.68,22.68,0,0,0,.34,4.2,2.31,2.31,0,0,0,.38,1.06,1.29,1.29,0,0,0,.83.41l3.71.77L4.27,62c.11,0,.07,5.56.1,6.06.08,1.88.12,3.79.23,5.68A20.92,20.92,0,0,0,5,77.41c.06.27.14.56.22.82a3.5,3.5,0,0,1-.39-.38,4.66,4.66,0,0,1-1.1-2.91,3.08,3.08,0,0,1,.08-.75,11.56,11.56,0,0,0,0-2.28l-.15-10c0-2.13,0-4.22-.28-6.32-.11-1-.06-2.11-.1-3.17a31.26,31.26,0,0,1,.1-3.87,7.3,7.3,0,0,1,.38-2.05c.25-.65.67-1.28,1.24-1.25a12.67,12.67,0,0,0,2.59-.28c1.92-.26,3.84-.48,5.76-.64,3.93-.34,7.88-.53,11.83-.62,1.92,0,3.85,0,5.77-.06Z"/><path class="cls-4" d="M203.8,67.32c5.81,1.7,11.88.78,17.79,1.83,2.38.42,4.76,1.15,7.16,1a5.78,5.78,0,0,1,2.68,0,3.4,3.4,0,0,1,1.68,2c.7,1.5.65,3.64.73,5.35.18,4.48-.14,8.94-.31,13.4a2.74,2.74,0,0,1-.3,1.37,1.29,1.29,0,0,1-.66.46c0-.1,0-.18,0-.26a15.94,15.94,0,0,1,.06-2.19,29.32,29.32,0,0,0,.27-3c0-.37,0-.69,0-1.07a1.71,1.71,0,0,0,0-.32,11,11,0,0,0-.15-1.3,13.33,13.33,0,0,1-.07-1.79q-.06-1.92-.24-3.81a1,1,0,0,0-.19-.6.48.48,0,0,0-.36-.1,66.53,66.53,0,0,0-9.65.85,30.69,30.69,0,0,0,8.19-1.72,1.92,1.92,0,0,0,1.33-1.09,5.43,5.43,0,0,0-.62-3.64,1.89,1.89,0,0,0-.89-.43l-.56-.15A48,48,0,0,0,224,71c-.94-.14-1.9-.24-2.85-.31s-1.84-.35-2.8-.44l-1.71-.15-5.83-.47c-1-.09-1.94-.1-2.89-.25a2.24,2.24,0,0,1-.78-.34,2.14,2.14,0,0,0-.44-.2c-.85-.25-1.73-.39-2.59-.6l-1.83-.46-.85-.22a3.28,3.28,0,0,0-.68-.19C201.79,67.34,202.79,67.32,203.8,67.32Z"/><path class="cls-4" d="M234,120.1c0,7.72-.13,15.44-.13,23.16,0,2.54.24,6.92-.73,9.2a2.23,2.23,0,0,1-1.3,1.26c.07-.19.11-.39.17-.58a23.72,23.72,0,0,0,.64-3.38,11.42,11.42,0,0,1,.18-1.57,7.9,7.9,0,0,0,.17-1.63l.3-4.91c.08-1.32.16-2.63.25-4l.12-2a4.2,4.2,0,0,0,0-.87,1.09,1.09,0,0,1,0-.26c-.06-.32,0-.69-.2-1a.71.71,0,0,0-.43-.28,14.29,14.29,0,0,0-4.54-.77,4.38,4.38,0,0,1,2-.13,3.7,3.7,0,0,0,2-.25,2.31,2.31,0,0,0,1-1.17,4.59,4.59,0,0,0,.21-.83,10.27,10.27,0,0,0,0-1.57c0-1,0-1.91,0-2.88,0-2.66,0-5.32-.19-8-.1-2-.24-4-.33-6.06a8.94,8.94,0,0,0-.43-1.6c-.14-.72.15-1.57-.18-2.23a1.33,1.33,0,0,0-1.29-.59l-9.2-.16c2.86.29,5.72-.46,8.54-1.22a2.9,2.9,0,0,0,1-.42,3.58,3.58,0,0,0,1.1-1.82c.12-.37.2-.76.31-1.14a2.48,2.48,0,0,0,.1-.39,10.75,10.75,0,0,0-.06-1.5c0-.59-.05-1.18-.08-1.76a4.53,4.53,0,0,0-.33-1.9,2.62,2.62,0,0,0-1.74-1.25l-4.94-1.64a6.9,6.9,0,0,1,1.3-.18l5.34,1.69a1.26,1.26,0,0,1,.65.37c.7.88.54,3.89.61,5,.13,2.2.19,4.41.21,6.63C234.09,111.79,234,116,234,120.1Z"/><path class="cls-4" d="M222.81,50.82c-.64.06-1.27.1-1.91.13l12,1.61a1.42,1.42,0,0,1,1,.47,2.57,2.57,0,0,1,.35,1,28.91,28.91,0,0,1,.33,5.18,73.39,73.39,0,0,1-.68,7.57c-.18,1.19-.74,1.28-1.34,1.14a2.1,2.1,0,0,0,.61-1.38c.09-3.16.18-6.33,0-9.49a8,8,0,0,0-.25-1.77,2.33,2.33,0,0,0-.53-.94,2.41,2.41,0,0,0-.36-.29l-.14-.1a1.09,1.09,0,0,1-.23-.14,1.36,1.36,0,0,0-.42-.13l-1.78-.41c-2.34-.53-4.7-.94-7.06-1.24a22.4,22.4,0,0,1-4.58-.85c1.13-.08,2.11-.25,3.23-.31Z"/><path class="cls-4" d="M233.69,189.75a20.37,20.37,0,0,0,.25-2.22c.08-1.25.07-2.51.07-3.76a15.21,15.21,0,0,0-.14-3.24,8.32,8.32,0,0,1-.29-2.35,5.1,5.1,0,0,0-.48-2.92,2.67,2.67,0,0,0-2.42-1l-4.47-.06a52.41,52.41,0,0,0,5.88-1.31,1.14,1.14,0,0,0,.78-.5,2.21,2.21,0,0,0,.16-1.13c-.08-2.67-.13-5.35-.24-8-.06-1.48-.26-2.77-1.4-3.27a19.36,19.36,0,0,0-3.92-.91c-2.34-.48-4.67-.91-7-1.28a139,139,0,0,0-14.08-1.54,266,266,0,0,1,27.31,2.17c.43.07.56,1.33.63,1.74a44.75,44.75,0,0,1,.43,4.63c.24,4.22.31,8.46.34,12.69v.21c0,.87,0,1.73.06,2.6,0,2.44.13,5.13-.06,7.54a12.73,12.73,0,0,1-.36,2.21,4.06,4.06,0,0,1-.32,1,3.47,3.47,0,0,1-1.67,1.44,6.13,6.13,0,0,0,.7-1.63A10.16,10.16,0,0,0,233.69,189.75Z"/><path class="cls-4" d="M3,32Q2.82,23,2.51,13.9c-.13-4,2.1-7.46,5-7.78A1024.65,1024.65,0,0,1,231,6.1c3,.32,5.2,3.84,5,7.89-.24,5.33-.45,10.68-.65,16-.12,3.74-.25,7.48-.36,11.24a11.7,11.7,0,0,1-.21,2.06c-.29,1.22-.22,2.55-.44,3.8a2.77,2.77,0,0,1-.39,1.11,1.59,1.59,0,0,1-.82.47l-.08,0a.59.59,0,0,0,0-.13c.08-1.64.29-3.37.25-5a14.78,14.78,0,0,1-.07-1.64,8.31,8.31,0,0,0-.08-2.39c-.41-2-2.08-3.32-3.56-2.84,1.09-1.3,3.13-.64,3.91-2.31a5.39,5.39,0,0,0,.07-3.09,80.27,80.27,0,0,0-13.84-.76,27.33,27.33,0,0,0,11.81-1.78,3,3,0,0,0,1.67-1.2,5.76,5.76,0,0,0,.56-2.28c.13-1.34.22-2.71.41-4,.06-.4.21-.74.27-1.13a12.32,12.32,0,0,0,0-1.92,26.64,26.64,0,0,0-.36-4.48,12.53,12.53,0,0,0-.75-2.55c-.45-1.09-.73-1.79-1.69-2.27a5.14,5.14,0,0,0-1.84-.46c-2.06-.25-3.46-.29-5.51-.61q-4.27-.68-8.54-1.21c-3.85-.5-7.71-.92-11.57-1.29q-2.9-.28-5.79-.52a4,4,0,0,0-1.25,0,1.91,1.91,0,0,1-.92,0,9.55,9.55,0,0,0-2.78-.48,3,3,0,0,0-2.72,2.57,4.18,4.18,0,0,1-.41-2.12,8.59,8.59,0,0,0-1.29,2.33,7.69,7.69,0,0,1-1.26-3.43,21.27,21.27,0,0,1-7-.07c-.32,1.15-.65,2.3-1,3.45a7.48,7.48,0,0,0-5.68-4.3c-2.23-.36-4.48.12-6.71.38a35,35,0,0,1-8.74-.08,1.13,1.13,0,0,0-1,.2,1.92,1.92,0,0,0-.38.8A19.92,19.92,0,0,0,156.68,7a5.43,5.43,0,0,0-2.38-3.63,6.39,6.39,0,0,0-3.61-.87c-2.27,0-4.52.63-6.79.66a24.75,24.75,0,0,1-3.74-.33,27.13,27.13,0,0,0-5.46-.5,8.75,8.75,0,0,0-1.34.16,6.35,6.35,0,0,1-1.2.23,4,4,0,0,1-.76-.16,10.18,10.18,0,0,0-1.56-.06l-3.41,0-11.68-.19-11.68-.18c-1.94,0-3.89-.07-5.84-.09-.44,0-.85-.14-1.29-.11l-7.28.44c-2,.13-4,.24-6,.36a10.42,10.42,0,0,1-2.38-.41,4.49,4.49,0,0,0-2.75.28A4,4,0,0,0,75.63,6.8a4.16,4.16,0,0,0-2.58-4.09,7.7,7.7,0,0,0-4.27.22,40.82,40.82,0,0,1-10.89.93c-.12,1.38-.23,2.77-.35,4.16a18.24,18.24,0,0,0-1.29-4.23,12.26,12.26,0,0,0-.41,6.14c-1-1.88-.81-4.9-2.3-6s-3.35.81-5.07.56c.06,1.32.13,2.65.19,4A5,5,0,0,0,47.1,5.05c-1.2-1.09-2.29-.7-3.63-.57l-4.33.46-7.75.8a5.87,5.87,0,0,1-1.72.11,4.21,4.21,0,0,0-1.16-.24A102.22,102.22,0,0,0,9.61,7.7,8.61,8.61,0,0,0,6.29,9a5.4,5.4,0,0,0-1.64,2,7.67,7.67,0,0,0-.52,2,10.84,10.84,0,0,1-.42,1.37,12.31,12.31,0,0,0-.6,3.05c-.08,1.61.39,3.37,1.43,4.15,1.23.91,2.85.22,4.09,1.09a7.86,7.86,0,0,0-4.35.51,1.13,1.13,0,0,0-.57.43,2,2,0,0,0-.16.74,21.18,21.18,0,0,0,0,3.65c.05.59.17,1.17.21,1.76s.05,1.31.08,2c.1,2.6.24,5.2.34,7.8,0,.43.09.69.08,1a1.51,1.51,0,0,0-.3,0,.41.41,0,0,1-.33-.12.94.94,0,0,1-.11-.38C3.27,37.42,3.05,34.7,3,32Z"/><path class="cls-4" d="M231,225.29a1094.89,1094.89,0,0,1-223.45,0c-2.95-.3-5.2-3.75-5.08-7.77,0-.89,0-1.79,0-2.68a20.92,20.92,0,0,1,.06-2.25c0-.26.13-.47.16-.73.09-.87.13-1.76.18-2.63.12-1.75.25-3.5.37-5.25,0-.17,0-.33,0-.48a1.79,1.79,0,0,1,.18-.78.89.89,0,0,1,.46-.38,14,14,0,0,1,6.69-1.81,36.43,36.43,0,0,0,7.27-.84l3-.56h.84a1.85,1.85,0,0,0,.47,0c-4.95,1.46-10,2.35-15,3.41a4.71,4.71,0,0,0-1.91.7l-.14.11a3.34,3.34,0,0,0-1.26,2.55c0,.51-.08,1-.1,1.51a4.13,4.13,0,0,0,.62,2.7,2.9,2.9,0,0,0,1.17.79A22.68,22.68,0,0,0,14,212.83l-6.93-.07c-.7,0-1.42-.07-2.12,0-.47,0-1.32,0-1.66.52a1.61,1.61,0,0,0-.23.74c-.17,1.43.19,2.89.16,4.32a9.57,9.57,0,0,0,.17,2.57A4.52,4.52,0,0,0,6.2,224a9.51,9.51,0,0,0,1.8.46l.92.14c.15,0,.31,0,.46.09a3.49,3.49,0,0,0,.43.07,1.89,1.89,0,0,1,.23-.05c.23,0,.47,0,.71,0h1c1.24,0,2.49,0,3.74,0,.62.05,1.24.11,1.86.22a1.17,1.17,0,0,0,.41.06,1.11,1.11,0,0,0,.25,0,.67.67,0,0,1,.2,0,10.51,10.51,0,0,1,1.7.39,1.42,1.42,0,0,0,1.07-.06,2.79,2.79,0,0,0,1-1.92,17.9,17.9,0,0,1,.48-2.38,25.28,25.28,0,0,1,0,2.61,3,3,0,0,0,.79,2.26,1.87,1.87,0,0,0,1.12.27c.63,0,1.26.05,1.89.06a7.07,7.07,0,0,0,1.22-.21,8.07,8.07,0,0,1,1.83.14l1.94.18q3.87.36,7.76.67c.69.05,1.4.16,2.09.16q9.67.72,19.36,1.14c1.94.08,3.9,0,5.83.22a3.33,3.33,0,0,1,.7.21,2.3,2.3,0,0,0,1.68-.41,7.15,7.15,0,0,0,3-3.22,6,6,0,0,0,5.11,4.68c2.17.3,4.36-.33,6.54-.2.63,0,1.24,0,1.86,0,.42,0,.85.23,1.27.28a3.06,3.06,0,0,0,1.67-.11c.17-.08.33-.21.5-.28a4.63,4.63,0,0,1,1.85-.15l4.24,0q4.25,0,8.48.22c1.4,0,2.8.14,4.2.24a1.75,1.75,0,0,0,.75-.07,4.37,4.37,0,0,1,.55-.24,8.58,8.58,0,0,1,2-.18h.46a4.5,4.5,0,0,0,1.41-.16,6,6,0,0,1,1.75,0h2.86c3.89,0,7.79,0,11.68.05l3.27,0c.54,0,1.09,0,1.63,0,3.89,0,7.77.09,11.66.16s7.78.17,11.67.27l5.83.17,2.92.1a4.32,4.32,0,0,0,2.07-.27,3.14,3.14,0,0,1,.93-.25c.63-.07,1.27-.11,1.9-.15a1.8,1.8,0,0,0,.61-.08c.33-.15.48-.3.8-.28a1.71,1.71,0,0,0,.59-.11,3.3,3.3,0,0,0,1.06-.68,11.31,11.31,0,0,0,1.78-2.37,20.27,20.27,0,0,0,1.65,2.52.85.85,0,0,0,.35.33c.52.19.8-.81,1.27-1.15a1.54,1.54,0,0,0,1.36,1,4.6,4.6,0,0,0,1.57-.33,10.55,10.55,0,0,1,4.63-.41l.57-1.22a2.06,2.06,0,0,0,2.22,1.46,10.62,10.62,0,0,0,1.86-.16,5,5,0,0,1,1.57-.23,13,13,0,0,0,3.29-.09c2.58-.23,5.16-.46,7.74-.71s5.16-.51,7.74-.78,5-.55,7.54-.84c.58-.08,1.17-.07,1.76-.1,1.92-.1,3.84-.21,5.76-.4,1-.1,1.92-.21,2.88-.35.47-.07,1-.12,1.43-.23a3,3,0,0,0,.41-.19,4.31,4.31,0,0,0,2.47-1.17,4.84,4.84,0,0,0,.88-2.26c.07-.44.11-.88.14-1.33.06-.85.14-1.67.13-2.54,0-3.12,0-6.24-.07-9.35v-.92c0-1.3,0-2.59-.15-3.87a12.79,12.79,0,0,1-.16-1.75c0-.16,0-.34.05-.5a3.4,3.4,0,0,0-.58-1.88c-.23-.31-.48-.59-.73-.89a2.18,2.18,0,0,0-.61-.53,5.67,5.67,0,0,0-1.45-.59L227.61,195a1.77,1.77,0,0,1-.85-.48c.42-.08.53-.29.94-.3H228c1.61.39,3.23.82,4.85,1.24a3.42,3.42,0,0,1,1.67.89,3.14,3.14,0,0,1,.58,1,7.94,7.94,0,0,1,.42,2.06c.15,1.78-.06,3.53.09,5.3.08.91.12,1.8.15,2.72.07,1.75.12,3.52.19,5.27.05,1.58.11,3.16.16,4.74C236.23,221.51,234,225,231,225.29Z"/><path class="cls-4" d="M99.56,21.49c11.64.73,23.3,1.46,34.88,3.28,9.59,1.51,19.15,3.77,28.81,3.86C141.45,30.52,121.39,22.32,99.56,21.49Zm46.1,37c-.71,0-1.43-.07-2.14-.1-3.85-.14-7.7-.08-11.54.15s-7.68.61-11.51,1.11q-2.88.39-5.75.84l-2.87.48-1.43.25c-.36.06-.7,0-1,.07a6.18,6.18,0,0,0-1.33.51l-1.38.54c-.92.36-1.85.72-2.77,1.06-1.85.69-3.71,1.34-5.58,1.91-1.55.47-3.11.89-4.68,1.25a69.83,69.83,0,0,1-11.28,1.69c-1.89.13-3.78.17-5.67.14a7,7,0,0,0-1.3,0l-2.52.49L70,69.49a9.17,9.17,0,0,0-1,.38,10.82,10.82,0,0,1-1.38.26c-1.86.23-3.72.08-5.57.16-5.13.23-10.1,2.26-15.17,3.31a80.08,80.08,0,0,1-11.44,1.27l1.28-.07q5.79-.31,11.58-.85c3.86-.37,7.72-.8,11.57-1.32,1.92-.26,3.84-.53,5.77-.83,1.1-.17,2.2-.23,3.31-.32,2.33-.19,4.65-.45,7-.75,4.67-.62,9.32-1.45,14-2.38C108.41,64.62,126.86,59.15,145.66,58.51Zm-72,92.88a45.52,45.52,0,0,0,13,3.6c2.22.35,4.46.65,6.68,1l1.72.31c.43.08.86.1,1.29.18a1.82,1.82,0,0,1,.39.14,7,7,0,0,0,1.19.19,21.06,21.06,0,0,1,2.51.83,7.28,7.28,0,0,0,3.22.62,18.31,18.31,0,0,0,2.35-.58,10.82,10.82,0,0,1,2.78-.24,24,24,0,0,1,5.61.84c.83.22,1.66.49,2.48.79s1.78.71,2.66,1.08a3.44,3.44,0,0,0,1.73.2,8.8,8.8,0,0,1,2.38.36c.91.19,1.82.36,2.73.52,3.68.66,7.37,1.12,11.07,1.42s7.44.44,11.17.42,7.38-.17,11.06-.47c1.4-.11,2.79-.29,4.19-.39a75.81,75.81,0,0,1-14.28-.51c-2.4-.28-4.8-.65-7.19-1.05a7.77,7.77,0,0,0-1.25-.21.71.71,0,0,0-.2,0,1.86,1.86,0,0,1-.57.07,49,49,0,0,1-5.14-.07c-9.23-.6-18.31-3.71-27.55-4.14-1.69-.07-3.39,0-5.08.1a11.57,11.57,0,0,1-3.41-.34c-1.14-.29-2.27-.63-3.42-.9a44.42,44.42,0,0,0-5.25-.71q-2.85-.31-5.7-.75t-5.67-1C77.35,152.34,75.51,151.9,73.69,151.39Zm49.76-20.93,2.35-.08a7.4,7.4,0,0,1,1.88.1,1.73,1.73,0,0,0,.64,0,3.64,3.64,0,0,1,1.42.19,2.15,2.15,0,0,0,.62,0,14.44,14.44,0,0,1,2.17.18l2.29.22c1.59.17,3.18.36,4.76.56,12.65,1.58,25.35,3.94,38.07,2.55l-44.48-4.12a7.41,7.41,0,0,0,2.24-.61c.76-.21,1.52-.44,2.29-.67l2.16-.69a12.57,12.57,0,0,0,1.23-.39,6,6,0,0,0,.77-.51c.51-.33,1-.64,1.55-.93a30.13,30.13,0,0,1,3.18-1.56,38.06,38.06,0,0,1,6.62-2.06,63.57,63.57,0,0,1,6.82-1.07c2.3-.25,4.6-.42,6.9-.6l3.5-.28a2.86,2.86,0,0,0,1.17-.27c.27-.15.52-.39.79-.55a3.67,3.67,0,0,1,1.66-.46l4.28-.49a38.34,38.34,0,0,1,7.49-.35c2.36.21,4.69.87,7.05,1a33.51,33.51,0,0,0,8.27-.82,102.13,102.13,0,0,0-16.57-.91c-2.81.07-5.62.26-8.43.45-2.46.17-4.92.34-7.38.56s-4.93.51-7.39.91a66.59,66.59,0,0,0-7.31,1.57c-1.2.34-2.4.72-3.6,1.15-.34.12-.68.27-1,.41a1.33,1.33,0,0,1-.43.13.91.91,0,0,0-.41.14,32.21,32.21,0,0,1-3.61,1.37c-1.21.39-2.43.73-3.65,1.07l-.52.14-3.81,1-3.82,1.05-1.91.53-1,.26a1.14,1.14,0,0,1-.4.08c-.32,0-.61.19-.94.14a5,5,0,0,0-1.62.21l-1.9.37c-1.28.24-2.55.47-3.83.66a49.51,49.51,0,0,1-7.68.62ZM86.59,194a35.36,35.36,0,0,1-4.6.15c-1.6,0-3.2-.1-4.79-.24-3.19-.27-6.38-.74-9.55-1.31-1.6-.28-3.19-.59-4.78-.91-.75-.15-1.51-.29-2.26-.46a2.17,2.17,0,0,1-.36-.12,2.84,2.84,0,0,0-1.53,0,16,16,0,0,1-6-.3,28.52,28.52,0,0,0-3.16-1c-1-.16-2,0-3-.22a15.35,15.35,0,0,1-2.42-.75c-5.54-1.93-11.4-1.34-17,.06,8.45-1.36,17,1,25.36,2.78,1.48.31,3,.6,4.45.76,1.21.13,2.42.18,3.62.42s2.4.66,3.61.95a10.36,10.36,0,0,0,1.83.27,6.92,6.92,0,0,0,.91,0,4,4,0,0,1,.77.06q3.84.33,7.7.41c2.52,0,5,0,7.54-.2C84.18,194.27,85.39,194.15,86.59,194Zm123.3,7.21q-17,1.15-34.11.88C186.39,205.75,199.11,203.75,209.89,201.21Z"/><path class="cls-7" d="M99.61,20.42c11.65.73,23.31,1.46,34.89,3.28,9.59,1.51,19.15,3.77,28.8,3.86C141.51,29.45,121.45,21.25,99.61,20.42Zm46.11,37-.58,0a114.88,114.88,0,0,0-11.59,0c-3.86.18-7.72.53-11.56,1a4.2,4.2,0,0,0-1.09.25,3.08,3.08,0,0,1-1.13.09,17.73,17.73,0,0,0-2.81.29c-1.85.34-3.68.89-5.53,1.29a63.18,63.18,0,0,1-14.2,1l5.39,1A23.22,23.22,0,0,1,95.44,65q-3.89,1-7.78,1.68Q82,67.76,76.22,68.36c-1.91.19-3.83.35-5.74.46L69,68.9a8.1,8.1,0,0,1-1-.1c-.72,0-1.4.32-2.1.27a3.57,3.57,0,0,0-.56-.07,15.61,15.61,0,0,0-1.92.29l-3.85.59q-3.85.6-7.7,1.23-7.71,1.26-15.39,2.63T21.16,76.58l-.62.12c11.82-1.19,23.66-2.38,35.36-4.9A42.51,42.51,0,0,1,65,70.44a29.47,29.47,0,0,0,3.64,0,7.92,7.92,0,0,1,1.59-.23,7.63,7.63,0,0,0,1.58-.06c2.49-.25,5-.58,7.47-1,5-.76,10-1.74,14.94-2.8s10-2.21,15-3.32,10-2.18,14.94-3.09S134,58.33,139,57.87Q142.36,57.55,145.72,57.44ZM164,161.15a65.1,65.1,0,0,1-11.08-.17c-2.78-.17-5.53-1-8.32-1.11s-5.54.16-8.32,0c-6.48-.37-12.79-2.95-19.24-3.75-1.75-.21-3.5-.3-5.25-.39l-4.52-.22-1.23-.07a16.44,16.44,0,0,1-2.78-.38c-.5-.11-1-.35-1.49-.42-2.33-.35-4.67-.6-7-.81s-4.75-.46-7.12-.78-4.73-.69-7.09-1.15c-1.22-.24-2.44-.5-3.66-.79l-1.69-.42a7.63,7.63,0,0,1-1.4-.38c8.23,4,17.13,3.62,25.64,5.82a6.57,6.57,0,0,1,2.19.76,1.75,1.75,0,0,0,.8.36,16.31,16.31,0,0,0,2.88.07c1.93-.05,3.86-.25,5.79-.25a24,24,0,0,1,4.75.91c1.44.29,2.88.53,4.33.71a8.85,8.85,0,0,1,2.51.56,3.29,3.29,0,0,0,1,.37c.45.06.91.18,1.36.27,1.83.35,3.67.66,5.5.92,3.71.52,7.44.86,11.16,1s7.46.2,11.18.07,7.34-.38,11-.77Zm-21.61-35,1.09-.49c1.86-.81,3.79-1.38,5.69-2,1-.35,2-.84,3.1-1.12a41,41,0,0,1,5.39-1.29,3,3,0,0,1,.85.06,5.87,5.87,0,0,0,2.29-.35,39.25,39.25,0,0,1,5.66-.84l1.24-.08a2.15,2.15,0,0,1,.67,0,1.1,1.1,0,0,0,.51.05,4.26,4.26,0,0,0,1-.28,11.27,11.27,0,0,1,1.85-.5,1.77,1.77,0,0,0,.7-.21,2.53,2.53,0,0,1,.81-.2,34,34,0,0,1,3.72-.53c1.82-.14,3.64-.24,5.45-.3a32.46,32.46,0,0,1,5.4.14c.52.07,1,.16,1.55.26,2.44.47,4.88,1.21,7.36,1.11.6,0,1.19-.16,1.8-.23a4.71,4.71,0,0,1,1.11.15,19.34,19.34,0,0,0,3-.09l4.57-.2,9.51-.45-19.54-.94a194.44,194.44,0,0,0-19.61-.27c-1.32.07-2.64.17-4,.29a122.14,122.14,0,0,0-15.11,2.43c-2.51.56-5,1.19-7.49,1.87-.32.08-.63.19-1,.29a.57.57,0,0,1-.22,0,1.44,1.44,0,0,0-.4.13l-.91.34c-.67.24-1.34.52-2,.7-1.2.33-2.42.52-3.62.81s-2.15.63-3.21,1-2.37.89-3.57,1.28c-.6.2-1.19.39-1.8.54q-.45.12-.9.21a1,1,0,0,1-.39,0,3.18,3.18,0,0,0-1.05.15c-1.24.21-2.48.39-3.73.52s-2.5.22-3.75.26l-1.41,0a.77.77,0,0,0-.54.08c-.24,0-.49.08-.73.12l-1.93.31a3.34,3.34,0,0,0-.69.18,7.72,7.72,0,0,1-1.49.3l-3.31.65c-1.78.34-3.55.68-5.33,1a41.94,41.94,0,0,0,10.2-.16c1.44-.26,2.88-.67,4.32-1a20.46,20.46,0,0,1,3.08-.53,27,27,0,0,1,6.81.62l5.75,1a4.2,4.2,0,0,0,1.93,0,6.37,6.37,0,0,1,2.38.12c3.86.52,7.72,1.06,11.59,1.51s7.71.79,11.58.92c1.83.05,3.67.06,5.5,0,.93,0,1.85-.07,2.78-.14s1.82-.24,2.72-.24L133.22,129a7.33,7.33,0,0,0,2.24-.61c.61-.17,1.21-.39,1.82-.53a1.15,1.15,0,0,1,.32,0,1.75,1.75,0,0,0,.56,0,16.47,16.47,0,0,0,1.77-.67C140.74,126.85,141.54,126.49,142.34,126.12ZM86.65,192.93a54.4,54.4,0,0,1-5.85.12c-1.29,0-2.57-.12-3.86-.23l-1.93-.2a8.6,8.6,0,0,1-1.82-.27,10.83,10.83,0,0,0-1.88-.3l-1.93-.3-3.86-.59c1.72-1.48,3.83-1.76,5.85-2.11a53.1,53.1,0,0,0,9.79-2.74,123.71,123.71,0,0,0-16.48,2.56c-1.49.33-3,.69-4.48.88a3.06,3.06,0,0,0-.93.21,3.42,3.42,0,0,1-1.56.08c-1.27,0-2.54-.09-3.81-.17a58.71,58.71,0,0,1-7.57-.88q-1.21-.23-2.4-.54a46.56,46.56,0,0,0-4.7-1.14,24.61,24.61,0,0,0-9.32.87l4.41,0a47.71,47.71,0,0,1,5.73.19,34.85,34.85,0,0,1,3.78.69c1.23.29,2.45.7,3.68.95q3.69.75,7.39,1.4c2.48.42,5,.8,7.45,1.11s5,.57,7.45.75,4.9.26,7.35.26,4.81-.1,7.2-.32C85.12,193.11,85.88,193,86.65,192.93ZM210,200.14q-17,1.16-34.11.88C186.45,204.68,199.17,202.68,210,200.14Z"/></g></g></svg>