<svg xmlns="http://www.w3.org/2000/svg" xmlns:xlink="http://www.w3.org/1999/xlink" viewBox="0 0 207.2 75.44"><defs><style>.cls-1{fill:url(#Áåçûìÿííûé_ãðàäèåíò_3);}.cls-2{fill:url(#Áåçûìÿííûé_ãðàäèåíò_3-2);}.cls-3{fill:url(#Áåçûìÿííûé_ãðàäèåíò_3-3);}.cls-4{fill:#eb924d;}.cls-5{fill:url(#Áåçûìÿííûé_ãðàäèåíò_3-4);}.cls-6{fill:url(#Áåçûìÿííûé_ãðàäèåíò_3-5);}.cls-7{fill:url(#Áåçûìÿííûé_ãðàäèåíò_3-6);}.cls-8{fill:url(#Áåçûìÿííûé_ãðàäèåíò_3-7);}.cls-9{fill:url(#Áåçûìÿííûé_ãðàäèåíò_3-8);}.cls-10{fill:url(#Áåçûìÿííûé_ãðàäèåíò_3-9);}.cls-11{fill:url(#Áåçûìÿííûé_ãðàäèåíò_3-10);}.cls-12{fill:url(#Áåçûìÿííûé_ãðàäèåíò_3-11);}</style><linearGradient id="Áåçûìÿííûé_ãðàäèåíò_3" x1="158.91" y1="-111.61" x2="122.87" y2="-14.62" gradientUnits="userSpaceOnUse"><stop offset="0" stop-color="#cf5c2b"/><stop offset="1" stop-color="#59173e"/></linearGradient><linearGradient id="Áåçûìÿííûé_ãðàäèåíò_3-2" x1="118.06" y1="-33.34" x2="85.2" y2="139.96" xlink:href="#Áåçûìÿííûé_ãðàäèåíò_3"/><linearGradient id="Áåçûìÿííûé_ãðàäèåíò_3-3" x1="117.52" y1="-27.96" x2="75.39" y2="187.23" xlink:href="#Áåçûìÿííûé_ãðàäèåíò_3"/><linearGradient id="Áåçûìÿííûé_ãðàäèåíò_3-4" x1="155.9" y1="-1.16" x2="145.75" y2="25.98" xlink:href="#Áåçûìÿííûé_ãðàäèåíò_3"/><linearGradient id="Áåçûìÿííûé_ãðàäèåíò_3-5" x1="157.34" y1="-2.95" x2="133.23" y2="52.96" xlink:href="#Áåçûìÿííûé_ãðàäèåíò_3"/><linearGradient id="Áåçûìÿííûé_ãðàäèåíò_3-6" x1="82.17" y1="27.38" x2="72.02" y2="54.51" xlink:href="#Áåçûìÿííûé_ãðàäèåíò_3"/><linearGradient id="Áåçûìÿííûé_ãðàäèåíò_3-7" x1="104.7" y1="-21.25" x2="45.69" y2="113.02" xlink:href="#Áåçûìÿííûé_ãðàäèåíò_3"/><linearGradient id="Áåçûìÿííûé_ãðàäèåíò_3-8" x1="135.72" y1="-34.52" x2="118.63" y2="-2.19" xlink:href="#Áåçûìÿííûé_ãðàäèåíò_3"/><linearGradient id="Áåçûìÿííûé_ãðàäèåíò_3-9" x1="82.03" y1="-73.91" x2="56.59" y2="-11.1" xlink:href="#Áåçûìÿííûé_ãðàäèåíò_3"/><linearGradient id="Áåçûìÿííûé_ãðàäèåíò_3-10" x1="101.37" y1="-66.07" x2="75.93" y2="-3.27" xlink:href="#Áåçûìÿííûé_ãðàäèåíò_3"/><linearGradient id="Áåçûìÿííûé_ãðàäèåíò_3-11" x1="198.03" y1="-27.11" x2="172.59" y2="35.71" gradientTransform="matrix(1, 0.03, -0.03, 1, 1.28, -4.37)" xlink:href="#Áåçûìÿííûé_ãðàäèåíò_3"/></defs><g id="Layer_2" data-name="Layer 2"><g id="layer_1-2" data-name="layer 1"><path class="cls-1" d="M207.09,60.11c-.11-1.56-.22-3.12-.31-4.68s-.2-3.28-.29-4.93c-.07-1.12-.16-2.31-.19-3.46,0-1,.37-2.55-.15-3.42a2.13,2.13,0,0,0-1.57-.77l-2.34-.42a25.89,25.89,0,0,0,3.08-.92,1.45,1.45,0,0,0,.61-.37,1.39,1.39,0,0,0,.21-.61,39.87,39.87,0,0,0,.12-6.56l0-6.62c0-2.1,0-4.19,0-6.29,0-.69.29-2.2-.05-2.82s-.93-.47-1.44-.53a10.16,10.16,0,0,0-1.56,0c-.77,0-1.54.17-2.31.29,1-.28,2-.42,3.06-.66a8.16,8.16,0,0,0,1.9-.69,2.11,2.11,0,0,0,1-.74,2,2,0,0,0,.17-.53,9.49,9.49,0,0,0,.14-1.18c.06-1.09.1-2.17.12-3.26,0-.55,0-1.1,0-1.65,0-.36-.15-.7-.18-1.06a7.21,7.21,0,0,0-7-6.61q-96.85-3.13-189.85,0a3.64,3.64,0,0,0-.74,0,6,6,0,0,0-.75.25,13.08,13.08,0,0,0-1.5.61A6.1,6.1,0,0,0,4.74,4.42c-.35.5-.6,1.06-.92,1.57a7,7,0,0,0-.52.73,22.34,22.34,0,0,1-2.23,3.81,6.7,6.7,0,0,0-1,4.32c.14,1.9.18,3.81.35,5.7.27,3,0,6,.35,9.06a1.78,1.78,0,0,0,.44,1.19,1.78,1.78,0,0,0,.83.33l2.86.63c-1.18.76-2.94.82-3.56,2.08A3.5,3.5,0,0,0,1,35.16C.91,36.78.76,38.39.65,40c-.05.72-.09,1.45-.11,2.17s-.09,1.36-.15,2c-.15,1.6-.56,3.69-.07,5.25s2.36,1.58,3.67,2a2.53,2.53,0,0,0-1.62,1.2c-.2.28-.34.59-.53.88a7.83,7.83,0,0,0-.47.79A9.25,9.25,0,0,0,.7,56a4.78,4.78,0,0,0-.19,1.12c0,.36,0,.73,0,1.09,0,.74,0,1.47-.07,2.2,0,1.47,0,2.93,0,4.4S.05,67.59.65,69a7.46,7.46,0,0,0,2.91,3.37A7.47,7.47,0,0,0,7,73.4q93.47,4.11,190,0a7.25,7.25,0,0,0,4.59-1.9,8.91,8.91,0,0,0,1.57-1.73c.54-.85,1.05-1.71,1.52-2.6C205.82,65,207.27,62.6,207.09,60.11Z"/><path class="cls-2" d="M200.16,67.91q-96.49,4.07-190,0A7.22,7.22,0,0,1,3.8,63.44a7.87,7.87,0,0,1-.49-3.5,2.17,2.17,0,0,1,.1-.62,8.37,8.37,0,0,0,.28-.94l.06-.52c.1-.94.13-1.91.22-2.85a8.61,8.61,0,0,1,.26-1.6,2.62,2.62,0,0,1,.92-1.49c2.05-1.54,6.06-1.52,9-1.58.58,0,1.12,0,1.61-.06,1.3-.09,2.59-.12,3.9-.11a54.41,54.41,0,0,1-9.19-.81c-1.45-.24-2.88-.55-4.29-.91a5.44,5.44,0,0,1-1-.35,1.92,1.92,0,0,1-1-.93A2.78,2.78,0,0,1,4,46c0-.39,0-.78,0-1.16,0-.82.13-1.62.22-2.43.08-.66.15-1.32.19-2,.11-1.76.22-3.51.36-5.27a2.28,2.28,0,0,1,.47-1.48,2.16,2.16,0,0,1,.81-.45,12.79,12.79,0,0,1,2.43-.64,11,11,0,0,0,1.17-.18,6.42,6.42,0,0,1,1.26-.28l13.63-1.59,1.63-.18c-6.85-.83-13.7-1.69-20.55-2.52l-.91-.11A1.12,1.12,0,0,1,4,27.44l0,0a1.24,1.24,0,0,1-.17-.63c-.31-3.71,0-7.53-.17-11.27,0-.2-.07-1.25-.13-2.43-.1-1.72-.21-3.69-.26-3.69a7.25,7.25,0,0,1,7-7.79Q103.1-1.64,200,1.6a7.27,7.27,0,0,1,7,7.83,26.82,26.82,0,0,1-.18,4.19,1.65,1.65,0,0,1-.43.9,1.85,1.85,0,0,1-.83.34l-2.35.57a24.31,24.31,0,0,1-3.11.59q-9.34,1-18.67,2l-.49,0-.61.06,1.49,0c7.79-.14,15.61-.26,23.4-.39a1.08,1.08,0,0,1,.64.13,1,1,0,0,1,.28.66,6.45,6.45,0,0,1,0,1c0,1-.19,1.94-.19,3s.22,1.76.21,2.67c0,1.3-.06,2.62-.11,4-.13,3-.34,6-.67,9a2.17,2.17,0,0,1-.4,1.23,2,2,0,0,1-.89.48,3.07,3.07,0,0,1-.61.18c-4.58,1.31-9.6.27-14.3,1.08a7.62,7.62,0,0,0-.93.18l-.31.07,1.16.09q7.71.57,15.4,1.55a2.25,2.25,0,0,1,1.62.67,2.25,2.25,0,0,1,.28,1.33v1.52c0,1.52,0,3.06.07,4.58.09,2,.22,4,.35,6.07.07,1,.13,2,.2,3A7.28,7.28,0,0,1,200.16,67.91Z"/><path class="cls-3" d="M206.23,25.11c0,1.3-.06,2.62-.11,4-2.64.24-5.24.45-7.77.73l-1.77.19q-3.27.35-6.55.62c-1.09.1-2.18.18-3.27.27-.7.06-1.33.34-2,.42a19.59,19.59,0,0,1-2.95-.2c-1.06-.07-2.13-.09-3.2-.07a59.83,59.83,0,0,0-6.42.43c-4.28.49-8.5,1.3-12.74,2q-10.2,1.7-20.51,2.57a87.09,87.09,0,0,1,11.12,1.83c-1.37.11-2.75.21-4.12.29-4.37.27-8.74.41-13.11.48s-8.75.08-13.13.07-8.75,0-13.13,0-8.75.14-13.12.34c-2.18.11-4.36.24-6.54.41l-1.63.13c-.67.06-1.3.25-2,.33-5.22.6-10.42,1.37-15.57,2.38A194.65,194.65,0,0,1,43.52,46l-4.42.28c-7,1.41-14.59,1.7-21.47,2.54-2.34.29-4.73.45-7.11.54-1.45-.24-2.88-.55-4.29-.91a5.44,5.44,0,0,1-1-.35,1.92,1.92,0,0,1-1-.93A2.78,2.78,0,0,1,4,46c0-.39,0-.78,0-1.16,0-.82.13-1.62.22-2.43C10.53,41.88,17,40.05,23,39.18,30.83,38.07,38.75,37.4,46.59,37c8.89-.49,17.74.56,26.6.56,8.2,0,16.39-.72,24.54-1.37q23.85-1.94,47.68-4c-3.46,0-6.92-.15-10.37-.27q-6.61-.23-13.21-.58a18.81,18.81,0,0,0-3.09-.06,24.09,24.09,0,0,1-3.18.13,27.75,27.75,0,0,1-6.22-.79c-1.2-.3-2.38-.67-3.6-.89a39.17,39.17,0,0,0-6.23-.27c-7.77-.1-15.44-2.16-23.21-2.08-2,0-4.08.19-6.11.37s-4.33.4-6.5.46a11.64,11.64,0,0,1-2.89-.13,11.55,11.55,0,0,0-2.28-.1l-4-.1q-3.94-.08-7.89-.1c-10-.05-19.93.51-29.91.43A94.22,94.22,0,0,1,4,27.44l0,0a1.24,1.24,0,0,1-.17-.63c-.31-3.71,0-7.53-.17-11.27,0-.2-.07-1.25-.13-2.43,5.08-.44,10.21-.55,15.3-.93,10-.74,19.93-1.05,29.93-1,19.83.1,39.6,1.36,59.36,2.87s39.5,3.35,59.28,4.75c10,.71,20,1.14,30,1.14,2.94,0,5.9-.17,8.87-.4,0,1-.19,1.94-.19,3S206.24,24.2,206.23,25.11Zm.31,26c-.07-1.52-.07-3.06-.07-4.58-6.31-.69-12.63-1.39-19-1.83a299.91,299.91,0,0,0-32.71-.18c-2.27.09-4.5.14-6.74.43l-3.26.4q-6.53.78-13.08,1.27c-1.7.13-3.41.25-5.11.35l13.24-.1,13.25-.09,6.62-.05,3.31,0a6.64,6.64,0,0,0,1.41-.07c.28-.06.54-.17.82-.22a16,16,0,0,1,3.09.11l3.29.19q3.28.19,6.57.44c3.44.26,6.89.55,10.33.86,3.76.34,7.5.78,11.23,1.24-8.49.81-17,1.65-25.49,2.11-19.59,1.08-39.18,2.44-58.8,2.06C96.1,53,76.8,51.88,57.44,52q-15.3,0-30.58.49c-7.51.22-15.13.18-22.63,1A8.61,8.61,0,0,0,4,55c-.09.94-.12,1.91-.22,2.85,8.35.35,16.81-.23,25.15-.25q15.29,0,30.58.33c19.31.45,38.61,1.52,57.92,1.86,19.65.36,39.27-1.06,58.87-2,10.11-.51,20.3-.52,30.42-.62h.2C206.76,55.11,206.63,53.1,206.54,51.07Z"/><path class="cls-4" d="M154.06,15.55C150,13.29,143.33,14,140.14,17a5.19,5.19,0,0,0,0,7.39c4.65,4.18,12.82,2.4,15.77-2.79l.17-.15C158.33,19.43,156.73,16.05,154.06,15.55Z"/><path class="cls-5" d="M155,13.56C151,11.31,144.29,12,141.1,15a5.16,5.16,0,0,0,0,7.38c4.65,4.19,12.82,2.4,15.77-2.78l.17-.15C159.29,17.45,157.68,14.07,155,13.56Z"/><path class="cls-6" d="M154.06,14.84c-4-2.25-10.73-1.56-13.92,1.48a5.18,5.18,0,0,0,0,7.38c4.65,4.19,12.82,2.4,15.77-2.78l.17-.15C158.33,18.73,156.73,15.35,154.06,14.84Z"/><path class="cls-4" d="M78.44,49.11c-4-2.25-10.72-1.55-13.92,1.48a5.18,5.18,0,0,0,0,7.38c4.66,4.19,12.83,2.4,15.78-2.78l.17-.15C82.72,53,81.11,49.62,78.44,49.11Z"/><path class="cls-7" d="M79.4,47.13c-4-2.25-10.73-1.56-13.92,1.48a5.18,5.18,0,0,0,0,7.38c4.65,4.19,12.82,2.4,15.77-2.78l.17-.16C83.67,51,82.07,47.64,79.4,47.13Z"/><path class="cls-8" d="M78.44,48.41c-4-2.25-10.72-1.56-13.92,1.48a5.18,5.18,0,0,0,0,7.38c4.66,4.18,12.83,2.4,15.78-2.78l.17-.16C82.72,52.3,81.11,48.92,78.44,48.41Z"/><path class="cls-4" d="M5,45.83A6.42,6.42,0,0,0,5.2,48.1a1.92,1.92,0,0,1-1-.93A2.78,2.78,0,0,1,4,46c0-.39,0-.78,0-1.16.06-1.49.33-2.94.41-4.42.11-1.76.22-3.51.36-5.27a2.28,2.28,0,0,1,.47-1.48,2.16,2.16,0,0,1,.81-.45,12.79,12.79,0,0,1,2.43-.64,11,11,0,0,0,1.17-.18,6.42,6.42,0,0,1,1.26-.28l13.63-1.59L9.91,33.47c-.95.19-2.22.18-3,.81a5.64,5.64,0,0,0-.81.88c-.08.1-.76,1.45-.49,1.46L16.35,37c-2.66.43-5.3.91-7.94,1.44-1.33.27-2.84.68-3.43,1.91A4.83,4.83,0,0,0,4.76,43c0,.28.14.54.2.82A9.28,9.28,0,0,1,5,45.83Z"/><path class="cls-4" d="M181,18.08l-.82,0h1.31Z"/><path class="cls-4" d="M185.45,40.75c1.27.12,2.53.24,3.8.33a7.62,7.62,0,0,0-.93.18C187.36,41.08,186.39,40.9,185.45,40.75Z"/><path class="cls-4" d="M204.13,38.87a7.61,7.61,0,0,0,.09-2.43c-.12-1.51-.23-3-.35-4.52a1,1,0,0,0-.29-.78,1,1,0,0,0-.67-.14l-5.65.19a17.19,17.19,0,0,0,5.89-1.6,2.28,2.28,0,0,0,1.27-1.12,2.37,2.37,0,0,0,.11-.88,72.48,72.48,0,0,0-.73-7.36,5.31,5.31,0,0,0-3.43-1l-14.77-.9c-1.18-.09-2.5-.13-3.75-.18,7.79-.14,15.61-.26,23.4-.39a1.08,1.08,0,0,1,.64.13,1,1,0,0,1,.28.66,32,32,0,0,1-.15,3.92c0,.89.22,1.76.21,2.67-.07,4.24-.3,8.67-.78,13a2.17,2.17,0,0,1-.4,1.23,2,2,0,0,1-.89.48,3.07,3.07,0,0,1-.61.18A2.77,2.77,0,0,0,204.13,38.87Z"/><path class="cls-4" d="M3.59,15.5c0-.5-.31-6.12-.39-6.12a7.25,7.25,0,0,1,7-7.79Q103.1-1.64,200,1.6a7.27,7.27,0,0,1,7,7.83,26.82,26.82,0,0,1-.18,4.19,1.65,1.65,0,0,1-.43.9,1.85,1.85,0,0,1-.83.34c-.78.19-1.55.4-2.33.57A6.14,6.14,0,0,0,205,13.21a2.39,2.39,0,0,0-.16-1.68,8.52,8.52,0,0,1-.4-2.65c-.05-1.15.16-2.79-.75-3.7a9.4,9.4,0,0,0-2.45-1.71,17.23,17.23,0,0,0-6.92-1.36H194a98.06,98.06,0,0,0-12.94.28c-.52.06-1,.2-1.48.3a9.13,9.13,0,0,1-2-.06c-1.46-.08-2.92-.14-4.38-.2-2.93-.11-5.86-.19-8.78-.22-2.2,0-4.39,0-6.59,0H145.92l-8.79,0h-4.39a11.93,11.93,0,0,1-2.07,0c-.66-.12-1.21-.52-1.92-.59a12.37,12.37,0,0,0-1.92.11c-1.6.12-3.19.28-4.79.45a3,3,0,0,0-2,.74,4.37,4.37,0,0,1-.49.56c-.45.32-1.07.11-1.59-.08a11.06,11.06,0,0,0-3.23-.61c-1,0-2,.13-3,.07a12.69,12.69,0,0,1-1.83-.3,58.69,58.69,0,0,0-7.37-.68c-1.81-.14-3.63-.23-5.44-.3-5.86-.2-11.72-.09-17.57.15-2.93.13-5.85.29-8.78.46a23.24,23.24,0,0,1-4.16.19c-.39,0-.74-.21-1.12-.28a7,7,0,0,0-1.21-.06L59.42,2c-1.9,0-3.81,0-5.72,0-.64,0-1.26.13-1.89.13S50.67,2,50.09,2a9.44,9.44,0,0,0-3.52.7A3,3,0,0,1,45.23,3C44.38,3,43.79,2.17,43,1.8c-1.84-.88-3.74.79-5.61.12a8.39,8.39,0,0,0-2.87-.3c-1.25,0-2.5,0-3.75,0-4.25,0-8.49.16-12.72.59-2.11.22-4.2.5-6.29.87-1,.18-2,.48-3,.59a1.53,1.53,0,0,0-.83.23c-1.24.87-4.68,5.75-2.23,7.47a4.8,4.8,0,0,0,2.81.55l18.76-.26L7,13.26a3,3,0,0,0-1.27.28c-1.3.7-.86,2.34-1,3.53a19.76,19.76,0,0,0,.21,4.79c.2,2,.44,4,.74,6l-.91-.11a1.12,1.12,0,0,1-.79-.31,1.24,1.24,0,0,1-.17-.63C3.45,23.06,3.8,19.24,3.59,15.5Z"/><path class="cls-4" d="M200.16,67.91q-96.49,4.07-190,0A7.22,7.22,0,0,1,3.8,63.44a7.87,7.87,0,0,1-.49-3.5,2.17,2.17,0,0,1,.1-.62,8.37,8.37,0,0,0,.28-.94c.15-1.11.18-2.25.28-3.37s.27-2.41,1.18-3.09c2.05-1.54,6.06-1.52,9-1.58,2.44,0,4.87,0,7.35.18a19.75,19.75,0,0,0-2.06.41c-1,.09-1.93.11-2.89.17l-5.69.33A16,16,0,0,0,7,52a2.91,2.91,0,0,0-1.29.73A3.33,3.33,0,0,0,5,54.18a8.86,8.86,0,0,0-.43,3.3c.05.32.17.62.21.94a6,6,0,0,1,0,1,7.72,7.72,0,0,0,.53,3.46c1.16,2.59,4.2,3.72,7,4.24,3.42.63,6.29,1.22,9.74.75l15.1.16c3,0,5.89.07,8.83.08.5,0,.95-.15,1.43-.16.71,0,1.44.13,2.14.18,1.45.11,2.9.19,4.35.23q5.34.18,10.67-.16a6.89,6.89,0,0,1,2.48,0,15.5,15.5,0,0,0,3.66.4c2.92.13,5.85.14,8.77,0l2.1-.09a10.31,10.31,0,0,0,3.31-.56,15.84,15.84,0,0,1,1.6-.66c1.59-.44,3.21.37,4.76.94,2,.74,4.2.39,6.29.53a42.71,42.71,0,0,0,8.46,0h.08A12.7,12.7,0,0,0,110,67.82a4.77,4.77,0,0,1,2-.68,5,5,0,0,1,2.3,1c2.31,1.38,5.18,1.35,7.86,1A33.08,33.08,0,0,1,129,68.8c1,.09,1.87,0,2.83,0l3.57,0c9.82,0,19.65.08,29.46-.25q6.21-.19,12.43-.62,3.28-.22,6.57-.49l3.28-.29c3.3-.31,6.64-.29,9.95-.53a11.87,11.87,0,0,0,5.73-1.45,5,5,0,0,0,2-2.7A3.55,3.55,0,0,0,205,60.8a4.55,4.55,0,0,1-.17-.78c0-.94,0-1.9,0-2.84a34.89,34.89,0,0,0-.06-4.46.78.78,0,0,0-.17-.45.77.77,0,0,0-.36-.18l-1.66-.47a3.18,3.18,0,0,0,1.81-1.57,2.9,2.9,0,0,0,.11-1.09,7.14,7.14,0,0,0-.4-2.61c-.35-.81-.41-1.47-1.26-1.71-4.36-1.2-9.1-2.34-13.68-3.22q7.71.57,15.4,1.55a2.25,2.25,0,0,1,1.62.67,2.25,2.25,0,0,1,.28,1.33c0,2,0,4.07.07,6.1q.22,4.51.55,9A7.28,7.28,0,0,1,200.16,67.91Z"/><path class="cls-4" d="M88.46,12.3a57.68,57.68,0,0,1-20.59-.2C74.73,11.73,81.6,12.07,88.46,12.3Z"/><path class="cls-4" d="M144,17.9a50.15,50.15,0,0,1-10.4.24c-9.51-.44-19.22-.92-28.06-4.2,5.39,0,10.73.88,16.07,1.57C129,16.47,136.61,17.2,144,17.9Z"/><path class="cls-9" d="M148.34,17.59c-2.53-.08-5-.35-7.55-.63l-34-3.72c-12.3-1.35-24.68-2.69-37-1.84-1.64,0-3.39.18-5,.16a149.51,149.51,0,0,0,22.79.78,62.6,62.6,0,0,1,9,0,62.88,62.88,0,0,1,7.07,1.33c4.4,1,8.85,1.71,13.31,2.32a265.59,265.59,0,0,0,37.61,2.26C152.17,17.94,150.66,17.67,148.34,17.59Z"/><path class="cls-4" d="M48.53,28.63a80.14,80.14,0,0,1-18.12,0A104.43,104.43,0,0,1,48.53,28.63Z"/><path class="cls-10" d="M53.28,28.68q-12.78-.25-25.58-.1a27.39,27.39,0,0,0,3.09-.37c1.06-.13,2.12-.27,3.18-.38a37,37,0,0,1,6.4-.14,4.44,4.44,0,0,0,1-.09,8.48,8.48,0,0,1,1.51.06q1.64.09,3.27.24c2.17.18,4.35.42,6.51.7Z"/><path class="cls-4" d="M69.81,42.56l-7,2.73a34.83,34.83,0,0,1-4.45,1.52,34.57,34.57,0,0,1-6,.78c-5.08.35-10.26.65-15.21-.57C48.19,46.91,59,44.75,69.81,42.56Z"/><path class="cls-11" d="M80.17,40,62.51,44.62A85.75,85.75,0,0,1,54,46.53a77.31,77.31,0,0,1-10.75.69q-4.78.06-9.56,0c1.23-.19,2.46-.35,3.7-.48.5,0,1,0,1.54-.11a65.82,65.82,0,0,1,7.71-.33A65,65,0,0,0,54.87,45c4.3-.7,8.59-1.52,12.87-2.39S76,40.9,80.17,40Z"/><path class="cls-4" d="M182.79,51.53c-4.88,1.75-10.22,1.43-15.4,1.11a19.6,19.6,0,0,0-3.25,0,17.74,17.74,0,0,0-2.06.36,61,61,0,0,1-9.3,1.39,23.84,23.84,0,0,1-9.27-1.18c8.17,1.31,16.6-1.24,24.87-1.42,2.06,0,4.13.05,6.19,0C177.38,51.57,180,51.56,182.79,51.53Z"/><path class="cls-12" d="M140.35,52.86a62.82,62.82,0,0,0,13.54.89c2.91-.23,5.78-.87,8.68-1.19,3.45-.38,6.93-.3,10.4-.35a134.65,134.65,0,0,0,18.59-1.59c-1.72,0-3.45,0-5.17,0-1.51.06-3,0-4.54,0-3.38.07-6.75.29-10.11.57s-6.71.61-10.07.92-6.7.59-10.06.75-6.74.2-10.1,0C141.13,52.9,140.73,52.91,140.35,52.86Z"/></g></g></svg>