<svg xmlns="http://www.w3.org/2000/svg" xmlns:xlink="http://www.w3.org/1999/xlink" viewBox="0 0 78.41 74.55"><defs><style>.cls-1{fill:url(#Áåçûìÿííûé_ãðàäèåíò_3);}.cls-2{fill:#59173e;}.cls-3{fill:#eb924d;}</style><linearGradient id="Áåçûìÿííûé_ãðàäèåíò_3" x1="73.35" y1="-38.2" x2="52.56" y2="8.03" gradientUnits="userSpaceOnUse"><stop offset="0" stop-color="#cf5c2b"/><stop offset="1" stop-color="#59173e"/></linearGradient></defs><g id="Layer_2" data-name="Layer 2"><g id="layer_1-2" data-name="layer 1"><path class="cls-1" d="M77.61,10.61C77.16,5.06,72.21.7,66.15.48Q40.58-.47,15.22.46a12.79,12.79,0,0,0-3.59.65A12.22,12.22,0,0,0,10,1.8a14.63,14.63,0,0,0-5.79,6,21.14,21.14,0,0,0-3,7.23,44.77,44.77,0,0,0-.42,5.66c0,1.63-.41,3.57.29,5.11a4.57,4.57,0,0,0,.8,1.2c.09.1,1,1,1.13.89-.81.71-2.1,1-2.63,1.88S.12,32.31.18,33.39c.1,2-.18,4.33.6,6.17A2.76,2.76,0,0,0,2.4,41.15,4.13,4.13,0,0,0,.67,44.24,26.83,26.83,0,0,0,.5,50.18c.1,1.66-.1,3.7.61,5.25a2.86,2.86,0,0,0,2.38,1.71,3.62,3.62,0,0,0-2.14,1.07c-.67.93-.55,2.92-.45,4a12.83,12.83,0,0,0,3.85,8.13,12.21,12.21,0,0,0,4.9,2.77,10.86,10.86,0,0,0,3,.52,470.43,470.43,0,0,0,51.74.09h.21a12.83,12.83,0,0,0,5.64-1.76,11.5,11.5,0,0,0,4-3.88,22.56,22.56,0,0,0,2.21-5.93c.15-.57.3-1.14.42-1.71.39-1.79,1.22-4.91.23-6.62a1,1,0,0,0-.88-.55,1.41,1.41,0,0,0,1.11-.8,8.79,8.79,0,0,0,.47-3.06c.18-1.92.25-3.83.33-5.75.09-2.55.16-5.09.21-7.64s0-5,0-7.5a52.67,52.67,0,0,0-.23-8.13,4,4,0,0,0-.62-1.55.88.88,0,0,0-.7-.48,5.05,5.05,0,0,0,.92-2A20.88,20.88,0,0,0,77.61,10.61Z"/><path class="cls-2" d="M78.4,25.48c0,2.12,0,4.23,0,6.35,0,1,0,2,0,3.05,0,.55,0,1.09,0,1.64,0,2.88-.07,5.76-.15,8.64,0,1.43-.07,2.86-.13,4.29a8.1,8.1,0,0,1-.3,2.46,13.69,13.69,0,0,0-.4,2.93,1.34,1.34,0,0,1-.31.83,1.21,1.21,0,0,1-.79.26l-1.42.15a66.53,66.53,0,0,1-14.31.36l4.62.69,10.73,1.6a1.58,1.58,0,0,1,.8.29A1.47,1.47,0,0,1,77,60.2a17.05,17.05,0,0,1-.2,1.89c-.17,1.25-.41,2.49-.46,3.76a6.77,6.77,0,0,1,0,.78,5.81,5.81,0,0,1-1.17,2.19,12.07,12.07,0,0,1-9,5,424.78,424.78,0,0,1-50.94-.1,12,12,0,0,1-7-2.78A11.29,11.29,0,0,1,5.3,67.32c-.3-.64-.38-1.35-.67-2a3,3,0,0,1-.16-.42,1.1,1.1,0,0,1,.31-1.18,2.44,2.44,0,0,1,1.44-.36c5.62-.19,11.24-.54,16.86-.7,1.77,0,3.55-.08,5.32-.08-.63-.1-1.26-.18-1.9-.25-2.9-.35-5.83-.46-8.75-.57h-.13a87.91,87.91,0,0,1-10.51-.83,7.6,7.6,0,0,1-1.95-.53,2.68,2.68,0,0,1-1.11-.89L4,59.4a3.45,3.45,0,0,1-.43-2.28,10.27,10.27,0,0,0,0-2.48c-.08-1.49-.16-3-.23-4.48-.05-.82-.09-1.63-.13-2.45a1.87,1.87,0,0,1,.25-1.3,1.8,1.8,0,0,1,1-.46c1.1-.28,2.2-.55,3.32-.72a12.78,12.78,0,0,1,1.5-.18l-3.86-.87a4.4,4.4,0,0,1-1.13-.37L4,43.67a2.36,2.36,0,0,1-.89-1.77c0-.23-.06-.46-.1-.69-.09-.53-.16-1.06-.21-1.6-.09-.82-.13-1.64-.17-2.45-.08-1.79-.17-4.09,1-5.59a2.52,2.52,0,0,1,1.8-.74q4.74-.57,9.49-.95,4-.31,8-.5a89.69,89.69,0,0,1-15.62-.71A8,8,0,0,1,4.78,28l-.06,0a2.82,2.82,0,0,1-.57-.35,2.74,2.74,0,0,1-.88-1.22,2.77,2.77,0,0,1,0-1.43,5.23,5.23,0,0,0,0-.56c0-1.13,0-2.28.08-3.41,0-.58,0-1.16.07-1.74q.12-3.8.35-7.57A12,12,0,0,1,15.22.51q25.35-1,50.93,0a12.08,12.08,0,0,1,11.28,9.69,13.78,13.78,0,0,1,.11,5.12,6.6,6.6,0,0,1-.34,1.23,2.58,2.58,0,0,1-.45.87l0,0a1.49,1.49,0,0,1-.51.14c-1,.24-2,.45-3,.63-2,.36-4,.61-6.08.79-4.09.36-8.2.42-12.3.49h-.12l3.37.2,15.23.89a7.8,7.8,0,0,1,3.56.79h0C78.34,22.3,78.42,23.94,78.4,25.48Z"/><path class="cls-2" d="M78.4,25.48c0,2.12,0,4.23,0,6.35,0,1,0,2,0,3.05,0,.55,0,1.09,0,1.64-7.82.51-15.65,1.19-23.5,1.67-9.13.56-18.27,1.17-27.4,1.75-4.92.31-9.8.69-14.7,1.24a56.09,56.09,0,0,1-9.6.72c0-.23-.06-.46-.1-.69-.09-.53-.16-1.06-.21-1.6,3.24-.68,6.48-.57,9.91-.68,4.6-.15,9.14-.47,13.72-.89,9.14-.85,18.28-1.74,27.41-2.78,5.44-.63,10.89-1.18,16.34-1.79l-.54,0C60.73,33,52,31.3,43.05,30.5s-17.67-1.48-26.53-2c-3.58-.22-7.69-.16-11.74-.45l-.06,0a2.82,2.82,0,0,1-.57-.35,2.74,2.74,0,0,1-.88-1.22,2.77,2.77,0,0,1,0-1.43,5.23,5.23,0,0,0,0-.56c0-1.13,0-2.28.08-3.41,0-.58,0-1.16.07-1.74,4.5-.25,9.13.05,13.12.09,8.86.08,17.69.51,26.53,1s17.74.31,26.61.73c2.4.11,4.81.2,7.21.26C78.34,22.3,78.42,23.94,78.4,25.48ZM49.06,46.23c-15.09.72-31,.05-45.71,3.93.07,1.49.15,3,.23,4.48a10.27,10.27,0,0,1,0,2.48A3.45,3.45,0,0,0,4,59.4a87.66,87.66,0,0,0,13.63,2.35h.13c2.9.29,5.82.46,8.75.57,7.56.28,15.17.11,22.56.18,9.24.09,18.49-.1,27.73-.42A17.05,17.05,0,0,0,77,60.2,1.47,1.47,0,0,0,76.67,59a1.58,1.58,0,0,0-.8-.29l-10.73-1.6-4.62-.69a66.53,66.53,0,0,0,14.31-.36l1.42-.15a1.21,1.21,0,0,0,.79-.26,1.34,1.34,0,0,0,.31-.83,13.69,13.69,0,0,1,.4-2.93,8.1,8.1,0,0,0,.3-2.46c.06-1.43.1-2.86.13-4.29C68.48,45.47,58.76,45.77,49.06,46.23Z"/><path class="cls-3" d="M4.05,59.5a3.43,3.43,0,0,1-.49-2.38,10.27,10.27,0,0,0,0-2.48c-.13-2.31-.24-4.62-.36-6.93a1.87,1.87,0,0,1,.25-1.3,1.8,1.8,0,0,1,1-.46c1.1-.28,2.2-.55,3.32-.72a11.44,11.44,0,0,1-2,1.25,2.22,2.22,0,0,0-.72.48,2,2,0,0,0-.35.85,27,27,0,0,0,.06,8.87c.15,1.23.29,2.47.4,3.71A2.68,2.68,0,0,1,4.05,59.5Z"/><path class="cls-3" d="M3,41.21a32.44,32.44,0,0,1-.38-4.05c-.08-1.79-.17-4.09,1-5.59a2.52,2.52,0,0,1,1.8-.74q4.74-.57,9.49-.95c-3,1-6.45,1-9.36,2.24a2.78,2.78,0,0,0-1.37,1,3,3,0,0,0-.34,1.1,16.69,16.69,0,0,0-.25,3.52q.07,1.15.18,2.31c.12,1.26.29,2.51.5,3.76L4,43.67C3.17,43.06,3.19,42.13,3,41.21Z"/><path class="cls-3" d="M64.62,56.9l.39.17A1,1,0,0,1,64.62,56.9Z"/><path class="cls-3" d="M77,60.2c-.08,1.91-.59,3.75-.66,5.65a6.77,6.77,0,0,1,0,.78,5.81,5.81,0,0,1-1.17,2.19,12.07,12.07,0,0,1-9,5,424.78,424.78,0,0,1-50.94-.1,12,12,0,0,1-7-2.78A11.29,11.29,0,0,1,5.3,67.32c-.3-.64-.38-1.35-.67-2a3,3,0,0,1-.16-.42,1.1,1.1,0,0,1,.31-1.18,2.44,2.44,0,0,1,1.44-.36c5.62-.19,11.24-.54,16.86-.7A123.74,123.74,0,0,0,8.35,64.5a17.4,17.4,0,0,0-2,.36A.55.55,0,0,0,6,65a.57.57,0,0,0-.07.48A3.19,3.19,0,0,0,6.69,67a13.19,13.19,0,0,0,4,3.92c4,2.12,8.1,1.81,12.64,1.7a19.39,19.39,0,0,0,2.76-.17,7.42,7.42,0,0,1,1.49,0l3.19.09,6.37.18,11.92.34a105,105,0,0,0,11.36-.12,34.51,34.51,0,0,0,10.92-2.5,4,4,0,0,0,.85-.42c.19-.13.33-.3.52-.43a10.7,10.7,0,0,0,1.63-1.2,3.84,3.84,0,0,0,1-1.17c.1-.24.15-.52.24-.77A7.81,7.81,0,0,0,76,64.31a13.88,13.88,0,0,0-.08-2.41,3.42,3.42,0,0,0-.2-1.32,1.62,1.62,0,0,0-.59-.4,5.72,5.72,0,0,0-1.58-.45,37.94,37.94,0,0,1-8.39-2.6l10.73,1.6a1.58,1.58,0,0,1,.8.29A1.47,1.47,0,0,1,77,60.2Z"/><path class="cls-3" d="M3.33,26.42a6.92,6.92,0,0,1-.12-1.82c.08-3,.16-5.91.32-8.87.15-2.71.1-5.57,1.21-8.09A12.06,12.06,0,0,1,15.22.51q25.35-1,50.93,0a12.08,12.08,0,0,1,11.28,9.69,13.78,13.78,0,0,1,.11,5.12,6.6,6.6,0,0,1-.34,1.23,2.58,2.58,0,0,1-.45.87c-.35-2.71.31-5.69-.66-8.24a9,9,0,0,0-2.73-4.08C69,1.74,62.6,2,57.38,1.87,43,1.61,28.62,1.15,14.24,2.45c-.66.06-1.31-.18-2-.07A8.19,8.19,0,0,0,8.45,4.54,12.46,12.46,0,0,0,5.24,9.35c-.19.53-.36,1.07-.5,1.62-1.39,5.35-.8,11.55-.14,17a2.06,2.06,0,0,1-1.23-1.4S3.34,26.46,3.33,26.42Z"/><path class="cls-3" d="M78.4,25.48c0,2.12,0,4.23,0,6.35,0,1,0,2,0,3.05,0,4.86-.1,9.72-.29,14.57a8.1,8.1,0,0,1-.3,2.46,13.69,13.69,0,0,0-.4,2.93,1.34,1.34,0,0,1-.31.83,1.21,1.21,0,0,1-.79.26l-1.42.15a2,2,0,0,0,.65-.76,4.14,4.14,0,0,0,.32-1.52,237.55,237.55,0,0,0,.5-25.73c0-1.13-.07-2.27-.12-3.4,0-.26,0-.51,0-.76a1.82,1.82,0,0,0-.43-.92,4.22,4.22,0,0,0-1.94-1.2c-5.24-1.76-11.1-.48-16.4-2.07h.64l15.23.89a7.8,7.8,0,0,1,3.56.79C78.34,22.28,78.42,23.93,78.4,25.48Z"/></g></g></svg>