<svg xmlns="http://www.w3.org/2000/svg" xmlns:xlink="http://www.w3.org/1999/xlink" viewBox="0 0 44.57 44.18"><defs><style>.cls-1{isolation:isolate;}.cls-2{fill:url(#Áåçûìÿííûé_ãðàäèåíò_3);}.cls-3{fill:url(#Áåçûìÿííûé_ãðàäèåíò_3-2);}.cls-4{fill:url(#Áåçûìÿííûé_ãðàäèåíò_3-3);}.cls-5{fill:#eb924d;}.cls-6{fill:url(#Áåçûìÿííûé_ãðàäèåíò_3-4);}.cls-7{fill:url(#Áåçûìÿííûé_ãðàäèåíò_3-5);}.cls-8{fill:url(#Áåçûìÿííûé_ãðàäèåíò_3-6);}.cls-9{fill:url(#Áåçûìÿííûé_ãðàäèåíò_3-7);}.cls-10{fill:url(#Áåçûìÿííûé_ãðàäèåíò_3-8);}.cls-11{fill:url(#Áåçûìÿííûé_ãðàäèåíò_3-9);}.cls-12{fill:url(#Áåçûìÿííûé_ãðàäèåíò_7);}.cls-13{fill:#ffdf80;}.cls-14{fill:url(#Áåçûìÿííûé_ãðàäèåíò_12);}.cls-15{fill:url(#Áåçûìÿííûé_ãðàäèåíò_12-2);}.cls-16{mix-blend-mode:screen;fill:url(#Áåçûìÿííûé_ãðàäèåíò_11);}.cls-17{fill:#a04623;}</style><linearGradient id="Áåçûìÿííûé_ãðàäèåíò_3" x1="22.04" y1="-1.17" x2="22.26" y2="20.27" gradientUnits="userSpaceOnUse"><stop offset="0" stop-color="#cf5c2b"/><stop offset="1" stop-color="#59173e"/></linearGradient><linearGradient id="Áåçûìÿííûé_ãðàäèåíò_3-2" x1="38.1" y1="-8.21" x2="-0.49" y2="63.37" xlink:href="#Áåçûìÿííûé_ãðàäèåíò_3"/><linearGradient id="Áåçûìÿííûé_ãðàäèåíò_3-3" x1="33.76" y1="-0.16" x2="-4.83" y2="71.43" xlink:href="#Áåçûìÿííûé_ãðàäèåíò_3"/><linearGradient id="Áåçûìÿííûé_ãðàäèåíò_3-4" x1="38.83" y1="-1.34" x2="39.05" y2="20.09" xlink:href="#Áåçûìÿííûé_ãðàäèåíò_3"/><linearGradient id="Áåçûìÿííûé_ãðàäèåíò_3-5" x1="9.04" y1="-1.03" x2="9.26" y2="20.4" xlink:href="#Áåçûìÿííûé_ãðàäèåíò_3"/><linearGradient id="Áåçûìÿííûé_ãðàäèåíò_3-6" x1="39.83" y1="-1.35" x2="40.06" y2="20.08" xlink:href="#Áåçûìÿííûé_ãðàäèåíò_3"/><linearGradient id="Áåçûìÿííûé_ãðàäèåíò_3-7" x1="20.6" y1="-6.66" x2="14.74" y2="3.51" xlink:href="#Áåçûìÿííûé_ãðàäèåíò_3"/><linearGradient id="Áåçûìÿííûé_ãðàäèåíò_3-8" x1="7.84" y1="4.45" x2="3.71" y2="19.99" xlink:href="#Áåçûìÿííûé_ãðàäèåíò_3"/><linearGradient id="Áåçûìÿííûé_ãðàäèåíò_3-9" x1="23.81" y1="63.02" x2="22.51" y2="21.96" xlink:href="#Áåçûìÿííûé_ãðàäèåíò_3"/><linearGradient id="Áåçûìÿííûé_ãðàäèåíò_7" x1="24.53" y1="3.92" x2="22.1" y2="29.83" gradientUnits="userSpaceOnUse"><stop offset="0" stop-color="#ffca2b"/><stop offset="1" stop-color="#d15b24"/></linearGradient><linearGradient id="Áåçûìÿííûé_ãðàäèåíò_12" x1="21.97" y1="38.96" x2="22.87" y2="21.72" gradientUnits="userSpaceOnUse"><stop offset="0" stop-color="#ffce3b"/><stop offset="1" stop-color="#cc6923"/></linearGradient><linearGradient id="Áåçûìÿííûé_ãðàäèåíò_12-2" x1="22.51" y1="28.88" x2="23.4" y2="8.97" xlink:href="#Áåçûìÿííûé_ãðàäèåíò_12"/><linearGradient id="Áåçûìÿííûé_ãðàäèåíò_11" x1="38.44" y1="4.09" x2="9.33" y2="32.86" gradientUnits="userSpaceOnUse"><stop offset="0" stop-color="#f2de6d"/><stop offset="1"/></linearGradient></defs><g class="cls-1"><g id="Layer_2" data-name="Layer 2"><g id="layer_1-2" data-name="layer 1"><path class="cls-2" d="M.28,20.85A13.88,13.88,0,0,0,0,24.43a6.09,6.09,0,0,0,.8,3.27,4,4,0,0,0,1,1c.25.18.56.27.81.43.06,0,.12.08.12.16s-.3.31-.4.39a1.33,1.33,0,0,0-.48.62,2,2,0,0,0,.29,1.34A25,25,0,0,0,3.7,34.32C6,37.81,8.63,41.4,12.66,43a22.45,22.45,0,0,0,7.19,1.1,75.47,75.47,0,0,0,7.67,0c2.3-.13,4.81-.31,6.77-1.5A11.8,11.8,0,0,0,37.78,39a48.27,48.27,0,0,0,3.84-6.93,2.05,2.05,0,0,0,.26-.7c0-.12,0-.23,0-.35a1.22,1.22,0,0,0-.29-.63,2.3,2.3,0,0,0,1-1,3.87,3.87,0,0,0,.3-.73,2,2,0,0,1,.23-.59,4.63,4.63,0,0,0,.5-1.36,33.11,33.11,0,0,0,.74-3.28c0-.16,0-.32.07-.48a10.85,10.85,0,0,0,.15-2.13c0-.07,0-.14,0-.2a20.25,20.25,0,0,1-2.09,7.44,48.61,48.61,0,0,1-4.07,7.47,11.73,11.73,0,0,1-3.47,3.55c-2,1.2-4.45,1.38-6.73,1.51a71.92,71.92,0,0,1-7.63,0,21.87,21.87,0,0,1-7.14-1.09,15.63,15.63,0,0,1-6.08-4.69A39.83,39.83,0,0,1,3,28a15.27,15.27,0,0,1-1.7-11.06A30.69,30.69,0,0,0,.28,20.85Z"/><path class="cls-3" d="M44.56,20.44a1.27,1.27,0,0,1,0,.2,14.53,14.53,0,0,1-.67,3.74,32.56,32.56,0,0,1-1.42,3.7c-.35.79-.71,1.56-1.09,2.33l-.08.14a47.07,47.07,0,0,1-2.9,5,13.24,13.24,0,0,1-1.28,1.67,10,10,0,0,1-2.2,1.88c-1.94,1.2-4.44,1.38-6.72,1.51a71.92,71.92,0,0,1-7.63,0,21.87,21.87,0,0,1-7.14-1.09,15.56,15.56,0,0,1-6.08-4.69l0,0a32.9,32.9,0,0,1-3.14-4.64c-.26-.44-.5-.89-.75-1.33-.16-.29-.31-.58-.46-.87s-.37-.71-.54-1.07A16.85,16.85,0,0,1,.94,21.66a14.14,14.14,0,0,1,0-3.05,14.47,14.47,0,0,1,.31-1.7,17.73,17.73,0,0,1,.65-2c.08-.18.15-.37.23-.55.23-.58.48-1.17.75-1.74.14-.32.28-.63.43-1,.31-.65.64-1.29,1-1.93.23-.42.46-.83.72-1.24s.64-1,1-1.55l.07-.1.52-.75.45-.6a.76.76,0,0,1,.08-.11,10.86,10.86,0,0,1,5.15-4C17-.17,22-.15,27.1.18A10.94,10.94,0,0,1,33.1,2a41.06,41.06,0,0,1,8.7,9.36.76.76,0,0,1,.08.11A16.13,16.13,0,0,1,44,15.94s0,0,0,0a8.7,8.7,0,0,1,.22.88c.06.23.1.45.14.69,0,0,0,0,0,0h0a17.45,17.45,0,0,1,.22,1.91C44.56,19.81,44.56,20.13,44.56,20.44Z"/><path class="cls-4" d="M44.56,20.44a1.27,1.27,0,0,1,0,.2,14.53,14.53,0,0,1-.67,3.74l-4-.24Q32,23.63,24,23.21C16.27,22.8,8.59,22.56.94,21.66a14.14,14.14,0,0,1,0-3.05c7.65-.56,15.31-.35,23.07-.19l.31,0c-.44-.07-.88-.15-1.33-.21-6.75-1-14.2-1.74-20.86-3.86.23-.58.48-1.17.75-1.74.14-.32.28-.63.43-1,.31-.65.64-1.29,1-1.93.23-.42.46-.83.72-1.24,6.43-.19,13.08.74,19.25,1.27,5.1.44,10.23.78,15.32,1.31.73.07,1.46.16,2.19.26a.76.76,0,0,1,.08.11A16.13,16.13,0,0,1,44,15.94s0,0,0,0a8.7,8.7,0,0,1,.22.88c.06.23.1.45.14.69,0,0,0,0,0,0h0a17.45,17.45,0,0,1,.22,1.91C44.56,19.81,44.56,20.13,44.56,20.44Zm-3.35,10.1C39,30.3,36.75,30.08,34.5,30q-6.72-.2-13.42-.56C16.6,29.22,12.19,29,7.7,29c-1.32,0-2.8-.11-4.27-.14.25.44.49.89.75,1.33a32.9,32.9,0,0,0,3.14,4.64,121.17,121.17,0,0,0,13.21,1.58q6.69.48,13.41.78c1.07,0,2.12.06,3.17,0a13.24,13.24,0,0,0,1.28-1.67,47.07,47.07,0,0,0,2.9-5Z"/><path class="cls-5" d="M41.88,11.46A16.13,16.13,0,0,1,44,15.94c-.1-.21-.22-.41-.33-.6-.37-.69-.76-1.37-1.17-2a35.8,35.8,0,0,0-2.59-3.64,6,6,0,0,1-1.09-1.55,4.12,4.12,0,0,0-1-1.29C36.52,5.55,35,4.54,33.67,3.39a12.67,12.67,0,0,0-2.49-1.83A7.57,7.57,0,0,0,28.25.92c-.37,0-.73,0-1.1,0a1.09,1.09,0,0,1-.44-.05,4,4,0,0,0-.5-.08c-.47-.05-.93-.09-1.4-.12a36.77,36.77,0,0,0-11.59,1,9,9,0,0,0-2,.7l-.27.16A13.72,13.72,0,0,0,9.28,3.75c-.27.22-.54.44-.83.64a1.48,1.48,0,0,1-.35.19,1.33,1.33,0,0,0-.44.5A9.56,9.56,0,0,0,7,6.32a.93.93,0,0,0-.08.2c0,.22-.08.45-.13.68A1.69,1.69,0,0,1,6,7l.07-.1.52-.75.45-.6a.76.76,0,0,1,.08-.11,10.86,10.86,0,0,1,5.15-4C17-.17,22-.15,27.1.18A10.94,10.94,0,0,1,33.1,2,41.29,41.29,0,0,1,41.88,11.46Z"/><path class="cls-5" d="M44.32,17.54c0,.07,0,.14,0,.21a3.14,3.14,0,0,1-.1-.87v0C44.24,17.08,44.28,17.3,44.32,17.54Z"/><path class="cls-5" d="M41.44,19.4a3.46,3.46,0,0,1,1.6.26,3.27,3.27,0,0,1,1.41,2.2,8.51,8.51,0,0,0,0-2.31,1,1,0,0,0-.12-.38.78.78,0,0,0-.37-.27,6.64,6.64,0,0,0-3.75,0c-.78.13-1.56.22-2.34.28s-1.58.09-2.36.08a1,1,0,0,0-.48,0c-.19.1,0,.09.14.09h1.21l2.4,0,2.41,0Z"/><path class="cls-5" d="M38.39,35.55a11.65,11.65,0,0,1-3.48,3.55c-1.94,1.2-4.44,1.38-6.72,1.51a71.92,71.92,0,0,1-7.63,0,21.87,21.87,0,0,1-7.14-1.09,15.56,15.56,0,0,1-6.08-4.69,32.48,32.48,0,0,1-3.16-4.67C3.75,29.43,3.35,28.69,3,28c-.19-.36-.37-.71-.54-1.07a14.86,14.86,0,0,1-1.16-10,17.73,17.73,0,0,1,.65-2c.17-.42.34-.84.52-1.26s.46-1,.66-1.48a13.61,13.61,0,0,1,.66-1.46A14.7,14.7,0,0,1,5.55,8.09a1.13,1.13,0,0,1,.37-.32,1.35,1.35,0,0,1,.45,0c.5,0,1,.06,1.5.1a44.41,44.41,0,0,0,4.75.63c.79,0,1.58-.16,2.37-.2.41,0,.82,0,1.22,0l.61.05.31,0a1.09,1.09,0,0,0,.18,0l.15,0a11.17,11.17,0,0,1-1.15.24c-.38.06-.77.12-1.15.16-.78.08-1.57.12-2.35.13s-1.57,0-2.36,0l-2-.06A6.06,6.06,0,0,0,6.32,9a4.22,4.22,0,0,0-2.11,1.74.22.22,0,0,0,0,.08,8.9,8.9,0,0,0-.76,1.51c-.11.25-.19.53-.32.78a1.49,1.49,0,0,1-.15.2,3.48,3.48,0,0,0-.22.43c-.14.32-.29.63-.42,1a16.83,16.83,0,0,0-.57,1.6,4.16,4.16,0,0,0-.31,1.51A6.8,6.8,0,0,1,1.33,19a7.55,7.55,0,0,0,0,1.26,7.66,7.66,0,0,1,2.26.47,7.36,7.36,0,0,0-.94.15,1.49,1.49,0,0,0-.85.44,1,1,0,0,0-.14.42,3.78,3.78,0,0,0,0,1,13.83,13.83,0,0,0,1.13,3.93l.41.94a1.55,1.55,0,0,0,.47.7,1.84,1.84,0,0,0,.65.21c.45.08.87.27,1.33.36a15.8,15.8,0,0,0,2.74.35c1.65,0,3.35-.3,4.95.15l-.78.06c-1.63.12-3.25.22-4.88.31l-2.41.12c-.16,0-.54,0-.63.15a.26.26,0,0,0,0,.15,3.21,3.21,0,0,0,.41.88,23.87,23.87,0,0,0,1.52,2.2,21.31,21.31,0,0,0,1.67,2,10.07,10.07,0,0,0,.88.85l.17.11a3.64,3.64,0,0,1,.69.61A9.66,9.66,0,0,0,11.63,38a12.73,12.73,0,0,0,2.65,1.15A24.78,24.78,0,0,0,20,40a42.92,42.92,0,0,0,12.08-.74,11,11,0,0,0,3.1-1.09A12.42,12.42,0,0,0,39,34.11,6.62,6.62,0,0,0,40.37,31a20,20,0,0,0-2.31-.58c.79-.07,1.57-.16,2.36-.24a1.22,1.22,0,0,1,.27,0,.69.69,0,0,0,.2,0,2.58,2.58,0,0,0,.29,0s.27,0,.28-.06A5.39,5.39,0,0,1,41,31.31a4.13,4.13,0,0,1-.32.49,6.94,6.94,0,0,0-.46.8c-.19.34-.39.68-.59,1C39.22,34.27,38.81,34.91,38.39,35.55Z"/><path class="cls-6" d="M33.52,19.31,42,19.14a4.25,4.25,0,0,1,1.63.18,1.34,1.34,0,0,1,.93,1.18.07.07,0,0,1,0-.05c0-.32,0-.64,0-1a17.45,17.45,0,0,0-.22-1.91.73.73,0,0,1-.14.26c-.22.27-.76.29-1.09.35l-.86.11Z"/><path class="cls-7" d="M3.88,29.36l.3.81C3.75,29.43,3.35,28.69,3,28c-.19-.36-.37-.71-.54-1.07l.14.13a5.32,5.32,0,0,0,.85.58,9.21,9.21,0,0,0,3.31.86,14.25,14.25,0,0,0,1.94.23q3.78.39,7.57.72Q10.06,29.27,3.88,29.36Z"/><path class="cls-8" d="M41.59,28.91a11.09,11.09,0,0,1-4,1.48c1.23,0,2.47,0,3.7,0a.85.85,0,0,0-.12.72l.73-1.69c.24-.54.44-1.13.73-1.66,0,.19-.31.45-.45.59A4.65,4.65,0,0,1,41.59,28.91Z"/><path class="cls-9" d="M18.88,8.23A41.71,41.71,0,0,1,8,8.32a3.05,3.05,0,0,0-2,.12l-.91.62a4,4,0,0,0-.79.69c.54-1,1.13-1.95,1.77-2.89l.52-.75a.65.65,0,0,0,0,.14,1.28,1.28,0,0,0,.65,1,3.32,3.32,0,0,0,1.15.38C11.79,8.28,15.43,7.94,18.88,8.23Z"/><path class="cls-10" d="M.88,19a.87.87,0,0,0,.38,1,2.45,2.45,0,0,0,1.09.31,19.91,19.91,0,0,0,4.36.17c-1.65.07-3.46.24-5.1.31a.83.83,0,0,0-.32.06.65.65,0,0,0-.28.6,2.66,2.66,0,0,1,0,.69A10,10,0,0,1,.88,19Z"/><path class="cls-11" d="M37.86,18.7a19.57,19.57,0,0,0-1.49-4.64A19.35,19.35,0,0,0,34,10.14a11.29,11.29,0,0,0-3.4-2.41,15,15,0,0,0-1.49-.89C18.41,2.07,5.83,11.32,6.91,22.53a12.82,12.82,0,0,0,1.76,5.36,16.71,16.71,0,0,0,12.92,8,18.17,18.17,0,0,0,5.93-.36,14,14,0,0,0,9-6.85A15.44,15.44,0,0,0,37.86,18.7Zm-4.8,8.44a10.47,10.47,0,0,1-6.79,5.15,13.91,13.91,0,0,1-4.46.27,12.6,12.6,0,0,1-9.71-6,10,10,0,0,1-1.31-4,9.7,9.7,0,0,1,0-1.32c0-.2,0-.39,0-.59s0-.19-.06-.29a1.79,1.79,0,0,1,0-.92,1.18,1.18,0,0,1,.51-.8,1.61,1.61,0,0,1,.72-.19,11.65,11.65,0,0,1,1.77-.07L11.46,18a8.27,8.27,0,0,1,.28-1c.13-.31.3-.59.44-.89a8.51,8.51,0,0,1,.89-1.35,12.8,12.8,0,0,1,5.07-4,12.22,12.22,0,0,1,3.13-.91,11.15,11.15,0,0,1,6.19.84c.4.18.74.46,1.12.67a8.57,8.57,0,0,1,2.55,1.81,14.79,14.79,0,0,1,1.79,3A15,15,0,0,1,34,19.67a9.44,9.44,0,0,1,0,3.89c-1.53.08-3.05.1-4.58.06l4.17.46c.44,0,.21.44.11.71a2.29,2.29,0,0,0-.11.74,2.45,2.45,0,0,1-.1.66c-.06.17-.13.32-.2.48l-.12.24C33.16,27,33.06,27.08,33.06,27.14Z"/><path class="cls-5" d="M34.44,30.94a10.74,10.74,0,0,0,2.67-4.63A17.83,17.83,0,0,0,37.77,21a2,2,0,0,0-.12-.77.92.92,0,0,0-.73-.55l-1.55-.38c1.22.05,2.55,0,3.77-.07l-.61.21a.69.69,0,0,0-.15.07.3.3,0,0,0-.07.15,2.47,2.47,0,0,0,0,.9,10.16,10.16,0,0,1,0,1.46l-.06.72c-.05.53-.16,1-.26,1.56-.2,1-.33,2-.6,3A6,6,0,0,1,36,29.88a.9.9,0,0,0,.44.46,1.58,1.58,0,0,0-.71.17,1.64,1.64,0,0,0-.32.27c-.33.36-.67.72-1,1.07a1.68,1.68,0,0,1-.37.27,5.18,5.18,0,0,0-.74.74,9.84,9.84,0,0,1-4,2.3l-.33.1a16.26,16.26,0,0,1-3.15.62,17.32,17.32,0,0,1-3.22,0,14.43,14.43,0,0,1-1.59-.21c-.26,0-.53-.1-.79-.16-.83-.19-1.67-.32-2.49-.59a20.37,20.37,0,0,1-6.44-3.8l-.69-.58c-.11-.09-.23-.18-.32-.27a2.73,2.73,0,0,0-.23-.25,1.48,1.48,0,0,0-.6-.3,7.64,7.64,0,0,0-1.07-.14.37.37,0,0,1,.31-.18,5.7,5.7,0,0,1,.83-.1,2.81,2.81,0,0,0,.41,0h.32c.55,0,1.08.17,1.63.24a3.57,3.57,0,0,0,1,0c-.78.07-1.57.15-2.36.21a3.39,3.39,0,0,0,1.73,1.51,2.13,2.13,0,0,1,.42.23l.16.12.32.26.66.5c.45.32.9.64,1.37.93a13.1,13.1,0,0,0,2.05,1,11.68,11.68,0,0,0,3.45.78,27.38,27.38,0,0,0,6.33.1l.75-.13a13.11,13.11,0,0,0,4.59-2.18A14.82,14.82,0,0,0,34.44,30.94Z"/><path class="cls-5" d="M8.61,27.51l-.9-2.2a11,11,0,0,1-.46-1.25,10.68,10.68,0,0,1-.2-1.13c-.06-.37-.11-.75-.17-1.12.06.36.06.74.1,1.1s.1.75.16,1.12c.14.73.31,1.46.52,2.17l.33,1a3.31,3.31,0,0,1,.14.41c0,.09,0,.19,0,.29a2.84,2.84,0,0,0,.31.84l.81-.05s-.19-.21-.22-.25a1.57,1.57,0,0,1-.2-.3A4.73,4.73,0,0,1,8.61,27.51Z"/><path class="cls-5" d="M13.71,9a26.49,26.49,0,0,0,4.36-.09A10.32,10.32,0,0,0,17,8.7c-.36,0-.72,0-1.09-.06H13.73c-.36,0-.73,0-1.09,0a.57.57,0,0,0-.13,0,.27.27,0,0,0,0,.2c0,.07.12.06.19.06.22,0,.44,0,.65,0S13.59,8.94,13.71,9Z"/><path class="cls-12" d="M36.11,23a9.48,9.48,0,0,1-.1,1.61,10.05,10.05,0,0,1-1.28,3.75,0,0,0,0,1,0,0c-2.8,4.81-9.35,7.1-14.95,5.64a13.61,13.61,0,0,1-8.24-6.45c-.14-.23-.27-.48-.39-.72a14,14,0,0,1-1.53-5.74,11.52,11.52,0,0,1,.11-2.27c0-.21.06-.41.09-.61a11.19,11.19,0,0,1,.49-1.74,13.59,13.59,0,0,1,4.63-5.93c.65-.49,1.32-.95,2-1.37,4-2.39,8.87-1.74,12.62.77a14.15,14.15,0,0,1,5.29,6.56c.1.24.19.49.28.74l.06.16.18.58c.08.26.15.53.21.8,0,.1.05.2.07.3s.05.21.07.31,0,.22.07.33.05.31.08.47v0l.06.39a.15.15,0,0,0,0,.07l.06.51s0,.06,0,.08C36.07,21.81,36.1,22.38,36.11,23Z"/><path class="cls-13" d="M32.91,27.67a18,18,0,0,1-1.37,1.66l-.12.12a6,6,0,0,0,.75-1.18q.34-.63.63-1.29a7.75,7.75,0,0,0,.49-1.32,6,6,0,0,0,0-.94,7.43,7.43,0,0,1,.18-1,3.17,3.17,0,0,0,0-.69,14.71,14.71,0,0,0-.09-1.49,13.24,13.24,0,0,0-.68-2.91l-.07-.16A9.84,9.84,0,0,0,26,12.29a10.68,10.68,0,0,0-6.75.92c-.26.11-.52.24-.77.37a22.23,22.23,0,0,0-2.88,1.83c-.9.66-1.73,1.44-2.66,2.06a1.8,1.8,0,0,1-1.46.35,1.73,1.73,0,0,1-1-1c-.07-.13-.13-.26-.19-.4a13.59,13.59,0,0,1,4.63-5.93c.65-.49,1.32-.95,2-1.37,4-2.39,8.87-1.74,12.62.77a14,14,0,0,1,2.4,2,13.59,13.59,0,0,1,1.56,2,16.55,16.55,0,0,1,2.56,7.48,3.76,3.76,0,0,1-.33,2.13,2.49,2.49,0,0,1-.56.68.59.59,0,0,0-.18.17c-.63.88-1.1,1.86-1.71,2.75Z"/><path class="cls-14" d="M34,22.92a8.65,8.65,0,0,1-.08,1.36,8.51,8.51,0,0,1-1.07,3.16v0c-2.17,3.73-7,5.66-11.39,5h0a8.7,8.7,0,0,1-1.13-.23,11.21,11.21,0,0,1-6.18-4.32,10.24,10.24,0,0,1-.73-1.12c-.12-.2-.23-.4-.33-.61a11.78,11.78,0,0,1-1.29-4.84,11.16,11.16,0,0,1,.09-1.91c0-.18,0-.35.09-.52a10.73,10.73,0,0,1,4.29-6.46,18.77,18.77,0,0,1,1.69-1.16,8.39,8.39,0,0,1,2.72-1.07,10.46,10.46,0,0,1,7.88,1.72,12,12,0,0,1,4.44,5.53c.08.21.16.41.23.63,0,0,0,.08.05.13l.15.49a3.39,3.39,0,0,1,.11.43s0,0,0,0a1.66,1.66,0,0,1,.06.21l.06.26.06.26c0,.09,0,.18.05.28s0,.26.07.39v0l.06.33V21c0,.14,0,.29,0,.43s0,0,0,.07l.06.71C34,22.45,34,22.69,34,22.92Z"/><path class="cls-15" d="M34,22.21c-3.61,2.57-9.46,3.66-14.6,2.7a15.94,15.94,0,0,1-7.63-3.58,11.16,11.16,0,0,1,.09-1.91c0-.18,0-.35.09-.52a10.73,10.73,0,0,1,4.29-6.46,18.77,18.77,0,0,1,1.69-1.16,9.85,9.85,0,0,1,10.6.65,12,12,0,0,1,4.44,5.53c.08.21.16.41.23.63,0,0,0,.08.05.13l.15.49c.07.22.13.45.18.67l.06.26.06.26c0,.09,0,.18.05.28s0,.26.07.39v0l.06.33V21c0,.14,0,.29,0,.43s0,0,0,.07Z"/><path class="cls-16" d="M33.47,19.14a4.42,4.42,0,0,1-.28-.8,2.1,2.1,0,0,0-.48-1,.91.91,0,0,0-1-.25,1.35,1.35,0,0,0-.49.54c-.62,1-1.13,2.09-1.74,3.11A30.64,30.64,0,0,1,20.91,30a2.77,2.77,0,0,0-.88.82,1,1,0,0,0-.13.77c.09.39.57.59.9.71l.59.19a8.7,8.7,0,0,1-1.13-.23,11.21,11.21,0,0,1-6.18-4.32A1.58,1.58,0,0,0,15,28a3.15,3.15,0,0,0,1.4-.92,36.76,36.76,0,0,0,7-8.71,10.13,10.13,0,0,0,1.19-3.21,4.66,4.66,0,0,0-.64-3.31,1.79,1.79,0,0,0-.57-.59c-.08,0-.17-.06-.26-.11-.28-.14-.53-.32-.82-.45a5.69,5.69,0,0,0-1.62-.47,10.46,10.46,0,0,1,7.88,1.72,12,12,0,0,1,4.44,5.53c.08.21.16.41.23.63,0,0,0,.08.05.13l.15.49A3.39,3.39,0,0,1,33.47,19.14Z"/><path class="cls-13" d="M31,24.85v0a3.4,3.4,0,0,0-.46.07l-.35.11a18.88,18.88,0,0,1-2.8.4s-.25,0-.27,0a12.73,12.73,0,0,1-3.83,3.3c-.08,0-.17.08-.24,0a.59.59,0,0,1-.1-.29c0-.22-.07-.45-.1-.68a4.3,4.3,0,0,0,0-.61,3.2,3.2,0,0,1-.08-.54c0-.47-.05-.94-.08-1.41,0-.94-.06-1.88-.05-2.82s0-1.88.07-2.82.13-1.87.2-2.81c0-.42.07-.84.11-1.26,0-.22,0-.43.05-.64a2.65,2.65,0,0,0,.05-.54,9.11,9.11,0,0,1,1.82,1.33c.73.69,1.59,1.75,2.31,2.47a28.59,28.59,0,0,0,3.62.44.11.11,0,0,0,.08,0s.07.25.07.27a4.89,4.89,0,0,1,.16.76A32.12,32.12,0,0,1,31,24.85Z"/><path class="cls-13" d="M17.63,28.37c-.07-.19-.18-.37-.26-.56s-.14-.4-.2-.61c-.13-.41-.23-.83-.33-1.26a17.07,17.07,0,0,1-.36-3.72c0-.46,0-.93.07-1.39a17.73,17.73,0,0,1,.72-3.4c.17-.56.36-1.1.57-1.64.06-.18.39-.7,0-.8a8.24,8.24,0,0,1-1.57-.85.67.67,0,0,1-.16-.12,1.49,1.49,0,0,0-.5-.26,9.81,9.81,0,0,0-1.82,4.67,23.7,23.7,0,0,0,.11,8.44,5.55,5.55,0,0,0,.58,1.75,1.63,1.63,0,0,0,.69.71c.29.12.62-.11.88-.21S17.72,28.62,17.63,28.37Z"/><path class="cls-13" d="M21.59,26.7c-.05-.14-.13-.28-.19-.43s-.11-.31-.16-.46c-.1-.32-.17-.64-.25-1A13.38,13.38,0,0,1,20.72,22a11.28,11.28,0,0,1,.4-2.95,16.75,16.75,0,0,1,.52-1.66l.15-.4c.05-.12.13-.24.05-.36s-.14-.09-.24-.11a3.91,3.91,0,0,1-.8-.38,1.07,1.07,0,0,1-.36-.27c-.09-.14-.21-.46-.42-.24a3.15,3.15,0,0,0-.46.72,6.35,6.35,0,0,0-.38.84,10.58,10.58,0,0,0-.48,1.92,18,18,0,0,0,.08,6.43,2.83,2.83,0,0,0,.91,1.85s.19,0,.25,0a.33.33,0,0,0,.14,0,2.43,2.43,0,0,0,.38-.13c.22-.09.4-.23.62-.31A1.62,1.62,0,0,0,21.59,26.7Z"/><path class="cls-17" d="M31.32,24.43v0l-.46.07c-.12,0-.23.09-.34.11a19,19,0,0,1-2.81.4s-.25,0-.27,0a12.59,12.59,0,0,1-3.83,3.3c-.08.05-.16.09-.24,0a.59.59,0,0,1-.1-.29c0-.22-.07-.45-.1-.67a4.07,4.07,0,0,0-.05-.61,2.59,2.59,0,0,1-.07-.55c0-.47-.06-.94-.08-1.41q-.07-1.41-.06-2.82c0-.94,0-1.88.07-2.81s.13-1.88.2-2.81c0-.43.07-.85.11-1.27l.06-.63a3.86,3.86,0,0,0,0-.54,8.89,8.89,0,0,1,1.81,1.32c.74.69,1.6,1.75,2.32,2.47a28.21,28.21,0,0,0,3.61.44.11.11,0,0,0,.08,0s.07.25.08.27a5,5,0,0,1,.15.77A32.18,32.18,0,0,1,31.32,24.43Z"/><path class="cls-17" d="M18,27.94c-.07-.19-.18-.37-.25-.56s-.15-.4-.21-.6c-.13-.42-.23-.84-.32-1.26a16,16,0,0,1-.36-3.73,13,13,0,0,1,.06-1.39,18.05,18.05,0,0,1,.72-3.4c.17-.55.36-1.1.57-1.64.07-.18.39-.7.05-.79a8.63,8.63,0,0,1-1.58-.86.61.61,0,0,1-.16-.12,1.7,1.7,0,0,0-.5-.26A9.91,9.91,0,0,0,14.17,18a23.76,23.76,0,0,0,.11,8.45,5.41,5.41,0,0,0,.59,1.75,1.59,1.59,0,0,0,.68.7c.29.12.62-.11.88-.21S18.06,28.19,18,27.94Z"/><path class="cls-17" d="M21.93,26.28c-.05-.15-.13-.29-.19-.43s-.11-.31-.16-.47-.17-.63-.24-.95a12.79,12.79,0,0,1-.28-2.84,11.78,11.78,0,0,1,.4-2.95A16.75,16.75,0,0,1,22,17l.15-.4c.05-.12.13-.24.05-.36s-.14-.08-.23-.11a4,4,0,0,1-.81-.38,1.07,1.07,0,0,1-.36-.27c-.09-.14-.21-.46-.42-.24a3.83,3.83,0,0,0-.46.72,6.35,6.35,0,0,0-.38.84A11.47,11.47,0,0,0,19,18.7a18.1,18.1,0,0,0,.08,6.44A2.81,2.81,0,0,0,20,27s.18,0,.24,0a.26.26,0,0,0,.15,0,2.65,2.65,0,0,0,.37-.12c.22-.09.41-.24.62-.32A1.59,1.59,0,0,0,21.93,26.28Z"/></g></g></g></svg>